<svg xmlns="http://www.w3.org/2000/svg" viewBox="0 0 500 500"><g id="freepik--background-complete--inject-14"><rect x="416.26" y="285.35" width="35.94" height="53.33" transform="translate(23.79 654.72) rotate(-75.56)" style="fill:#fff"></rect><path d="M455.57,336.07s0-.23.14-.65l.46-1.86,1.75-7c1.54-6.06,3.73-14.75,6.41-25.32l.15.25-51.65-13.24.31-.19h0v.13l0,.15-.08.29-.15.58-.29,1.15-.6,2.31q-.58,2.3-1.17,4.56-1.17,4.52-2.3,8.9c-1.5,5.82-3,11.42-4.32,16.72l-.17-.29,37.13,9.68L451.75,335l2.83.76.73.2.26.08-.24-.05-.71-.17-2.8-.69-10.61-2.66L403.87,323l-.23-.06.06-.23c1.36-5.3,2.79-10.9,4.29-16.73q1.13-4.37,2.29-8.9c.38-1.51.78-3,1.17-4.56.2-.77.39-1.54.59-2.31l.3-1.15.15-.58.07-.29,0-.15,0-.07v-.06h0l.32-.19,51.62,13.35.21.05-.06.2c-2.77,10.61-5.05,19.31-6.65,25.4l-1.84,7c-.21.78-.38,1.38-.49,1.81Z" style="fill:#e0e0e0"></path><path d="M464.53,301.26a2.64,2.64,0,0,1-.56.36l-1.67.95L456.09,306l-20.74,11.19-.19.1-.14-.17-1-1.33-15-19.6c-1.88-2.48-3.41-4.51-4.5-6-.5-.68-.9-1.23-1.21-1.64a4,4,0,0,1-.39-.6,4.89,4.89,0,0,1,.48.53c.32.41.75.93,1.28,1.58l4.63,5.88,15.13,19.5,1,1.33-.33-.07,20.81-11,6.28-3.27,1.72-.87A3.93,3.93,0,0,1,464.53,301.26Z" style="fill:#e0e0e0"></path><path d="M107.75,370.42a3,3,0,0,0,1.29-.87,2.75,2.75,0,0,0,.63-1.74,4.53,4.53,0,0,0-.21-1.19c-.1-.43-.22-.89-.34-1.37-1-3.88-2.34-9.46-4.05-16.34-.42-1.72-.87-3.53-1.33-5.42l-.7-2.88a9.81,9.81,0,0,0-.41-1.42,2.57,2.57,0,0,0-.95-1,2.4,2.4,0,0,0-1.38-.35,14.52,14.52,0,0,0-1.53.36l-3.18.82-6.65,1.73-29.6,7.65a2.48,2.48,0,0,0-1.77,2.82c.31,1.29.61,2.58.92,3.86q.93,3.85,1.84,7.58c1.2,5,2.35,9.77,3.46,14.34l.41,1.7a2.59,2.59,0,0,0,.74,1.38,2.33,2.33,0,0,0,1.37.66,4.21,4.21,0,0,0,1.57-.24l6.28-1.6L85.42,376l16.33-4.12,4.44-1.09,1.16-.27.4-.08-.39.13-1.14.32-4.42,1.19-16.28,4.28-11.25,2.93L68,380.9a4.45,4.45,0,0,1-1.74.26,2.83,2.83,0,0,1-1.65-.78,3.09,3.09,0,0,1-.88-1.61c-.13-.56-.27-1.13-.41-1.7-1.11-4.57-2.28-9.36-3.49-14.33-.6-2.48-1.22-5-1.84-7.58-.31-1.29-.62-2.59-.94-3.9a3,3,0,0,1,2.16-3.41l29.61-7.61,6.65-1.7,3.19-.82a11.16,11.16,0,0,1,1.61-.35,2.74,2.74,0,0,1,1.63.41A2.93,2.93,0,0,1,103,339a8.34,8.34,0,0,1,.43,1.5c.24,1,.47,1.95.69,2.89.45,1.89.89,3.7,1.3,5.43,1.64,6.89,3,12.48,3.89,16.38l.32,1.37a4.55,4.55,0,0,1,.19,1.23,2.9,2.9,0,0,1-.71,1.81,2.6,2.6,0,0,1-1,.69A1.46,1.46,0,0,1,107.75,370.42Z" style="fill:#e0e0e0"></path><polygon points="84.51 356.05 90.86 357.96 86.1 362.7 81.34 367.43 79.75 360.78 78.17 354.13 84.51 356.05" style="fill:#e0e0e0"></polygon><path d="M166.43,60.17a8.42,8.42,0,0,0,5.07-7.74,7.9,7.9,0,1,0-15.76-.2,8.39,8.39,0,0,0,4.95,7.89C148.55,61.84,149,75,149,75l28.69.38S178.44,62.08,166.43,60.17Z" style="fill:#e0e0e0"></path></g><g id="freepik--device-3--inject-14"><rect x="340.55" y="96.15" width="71.02" height="101.91" rx="3.71" transform="translate(228.95 523.17) rotate(-90)" style="fill:#455a64"></rect><rect x="341.36" y="104.55" width="66.54" height="85.11" transform="translate(227.52 521.74) rotate(-90)" style="fill:#fff"></rect><circle cx="421.9" cy="147.11" r="2.72" transform="translate(125.5 481.45) rotate(-67.67)" style="fill:#263238"></circle><path d="M329.17,137v20.26a.57.57,0,0,1-.57.56h0a.56.56,0,0,1-.56-.56V137a.56.56,0,0,1,.56-.57h0A.57.57,0,0,1,329.17,137Z" style="fill:#263238"></path><rect x="366.33" y="79.5" width="52.18" height="71.41" style="fill:#e0e0e0"></rect><rect x="353.1" y="88.49" width="52.18" height="71.41" style="fill:#FFFFFF"></rect><rect x="344.16" y="99.46" width="52.18" height="71.41" style="fill:#fff"></rect><path d="M396.37,170.85s0-.12,0-.35,0-.58,0-1l0-3.91c0-3.41,0-8.38-.07-14.66,0-12.57-.09-30.39-.16-51.48l.24.24-52.18.06h0l.26-.26v71.41l-.21-.22,37.89.09,10.55,0,2.77,0c.64,0,1,0,1,0l-.92,0-2.74,0-10.5.06-38,.14H344v-.21c0-20-.07-44.74-.1-71.41v-.26h.26l52.18,0h.24v.24c0,21.15-.06,39-.08,51.63,0,6.26,0,11.21-.06,14.61,0,1.68,0,3,0,3.86,0,.42,0,.75,0,1A2,2,0,0,1,396.37,170.85Z" style="fill:#263238"></path><path d="M376.06,113.81c0,.14-5.68.26-12.68.27s-12.68-.11-12.68-.25,5.68-.27,12.68-.27S376.06,113.66,376.06,113.81Z" style="fill:#263238"></path><path d="M389.78,120c0,.15-8.75.27-19.54.28s-19.53-.11-19.53-.25,8.74-.27,19.53-.27S389.78,119.86,389.78,120Z" style="fill:#263238"></path><path d="M389.78,126.48c0,.14-8.74.26-19.53.27s-19.54-.1-19.54-.25,8.75-.26,19.54-.27S389.78,126.33,389.78,126.48Z" style="fill:#263238"></path><path d="M389.79,133c0,.14-8.75.27-19.54.27s-19.53-.1-19.53-.24,8.74-.27,19.53-.28S389.79,132.81,389.79,133Z" style="fill:#263238"></path><path d="M389.79,139.42c0,.15-8.74.27-19.53.28s-19.54-.11-19.54-.25,8.75-.27,19.54-.27S389.79,139.28,389.79,139.42Z" style="fill:#263238"></path><path d="M389.8,145.9c0,.14-8.75.26-19.54.27s-19.53-.1-19.53-.25,8.74-.26,19.53-.27S389.8,145.75,389.8,145.9Z" style="fill:#263238"></path><path d="M389.8,152.37c0,.14-8.74.27-19.53.27s-19.54-.1-19.54-.24,8.75-.27,19.54-.28S389.8,152.23,389.8,152.37Z" style="fill:#263238"></path><path d="M371.74,158.86c0,.14-4.7.26-10.5.26s-10.51-.11-10.51-.25,4.71-.26,10.51-.27A104.07,104.07,0,0,1,371.74,158.86Z" style="fill:#263238"></path></g><g id="freepik--device-2--inject-14"><rect x="182.42" y="355.09" width="159.01" height="105.15" rx="7.01" style="fill:#263238"></rect><path d="M338.85,461.66H185a9.19,9.19,0,0,1-9.2-9.2H348.05A9.2,9.2,0,0,1,338.85,461.66Z" style="fill:#263238"></path><rect x="186.69" y="359.26" width="150.03" height="88.8" style="fill:#455a64"></rect><polygon points="246.25 452.46 248.39 455.86 278.48 455.86 280.46 452.46 246.25 452.46" style="fill:#455a64"></polygon><rect x="191.7" y="365.18" width="138.13" height="82.85" style="fill:#fff"></rect><path d="M261.9,375.78,263.22,400a1.62,1.62,0,0,0,1.62,1.54l43.5.32A1.62,1.62,0,0,0,310,400.2l.14-18.82a1.63,1.63,0,0,0-1.63-1.64l-26.75,0a1.71,1.71,0,0,1-1.16-.48L276,374.62a1.65,1.65,0,0,0-1.15-.47l-11.28-.09A1.64,1.64,0,0,0,261.9,375.78Z" style="fill:#ebebeb"></path><rect x="262.52" y="376.72" width="47.54" height="28.41" transform="translate(2.87 -2.09) rotate(0.42)" style="fill:#f5f5f5"></rect><path d="M258.82,379.07l3.41,29.65a1,1,0,0,0,1,.92l46.32.34a1,1,0,0,0,1.06-1l2.55-29.6a1.06,1.06,0,0,0-1-1.14l-52.29-.38A1,1,0,0,0,258.82,379.07Z" style="fill:#ebebeb"></path><path d="M228.33,388.77l1.82,33.37a2.25,2.25,0,0,0,2.23,2.13l60.05.44a2.25,2.25,0,0,0,2.27-2.23l.19-26a2.25,2.25,0,0,0-2.25-2.27l-36.93,0a2.25,2.25,0,0,1-1.59-.66l-6.38-6.37a2.2,2.2,0,0,0-1.57-.66l-15.57-.12A2.26,2.26,0,0,0,228.33,388.77Z" style="fill:#FFFFFF"></path><rect x="229.18" y="390.06" width="65.62" height="39.21" transform="translate(3.01 -1.91) rotate(0.42)" style="fill:#f5f5f5"></rect><path d="M224.08,393.3l4.71,40.93a1.44,1.44,0,0,0,1.43,1.28l63.94.47a1.46,1.46,0,0,0,1.46-1.33l3.52-40.86a1.45,1.45,0,0,0-1.44-1.57l-72.17-.53A1.45,1.45,0,0,0,224.08,393.3Z" style="fill:#FFFFFF"></path><path d="M273.2,406.67s.23.11.58.42a8.14,8.14,0,0,1,1.37,1.55,10.92,10.92,0,0,1,1.84,7.3,13.83,13.83,0,0,1-5.63,9.59,13.16,13.16,0,0,1-6.25,2.51,12.3,12.3,0,0,1-7.1-1.41,12.52,12.52,0,0,1-5.16-5.06,12.24,12.24,0,0,1-1.37-6.6,13.09,13.09,0,0,1,1.78-5.82,13.31,13.31,0,0,1,3.54-3.93,15.37,15.37,0,0,1,7-2.92,12.56,12.56,0,0,1,2.05-.15c.47,0,.71,0,.71.08s-1,.1-2.69.47a16,16,0,0,0-6.58,3.1,12.86,12.86,0,0,0-3.24,3.78,12.52,12.52,0,0,0-1.58,5.44A11.51,11.51,0,0,0,265,427a12.16,12.16,0,0,0,5.79-2.27,13.22,13.22,0,0,0,5.47-8.9,10.93,10.93,0,0,0-1.45-7C273.9,407.37,273.13,406.74,273.2,406.67Z" style="fill:#263238"></path><path d="M261.28,398.42c.21-.38,2.63,1.31,5.38,3.64l.46.38-.45.4-.34.3c-2.89,2.51-5.38,4.37-5.57,4.16s2-2.43,4.88-4.95l.34-.29v.79c-1.37-1.18-2.57-2.27-3.42-3.07A8,8,0,0,1,261.28,398.42Z" style="fill:#263238"></path></g><g id="freepik--device-1--inject-14"><path d="M107.58,255.78l-39.87-4.63A8.73,8.73,0,0,1,60,241.49l11.55-99.68a8.72,8.72,0,0,1,9.69-7.66l39.87,4.63a8.74,8.74,0,0,1,7.68,9.67l-11.55,99.68A8.72,8.72,0,0,1,107.58,255.78Z" style="fill:#263238"></path><path d="M120.7,142.22l-7.73-.9a1.92,1.92,0,0,0-2.1,1.74l-.17,1.4a1.92,1.92,0,0,1-2.1,1.74l-15.07-1.75a2,2,0,0,1-1.65-2.18l.16-1.4a1.92,1.92,0,0,0-1.65-2.17l-2.71-.32-6.77-.78A6.12,6.12,0,0,0,74.12,143L62.85,240.25A6.12,6.12,0,0,0,68.23,247L108,251.64a6.12,6.12,0,0,0,6.79-5.36L126.08,149A6.12,6.12,0,0,0,120.7,142.22Z" style="fill:#fff"></path><rect x="63.11" y="153.36" width="33" height="22.24" transform="translate(-8 4.12) rotate(-2.82)" style="fill:#f5f5f5"></rect><path d="M95.54,152.56a11.33,11.33,0,0,1-1.14,1.2l-3.25,3.11c-2.76,2.61-6.59,6.19-10.87,10.14l-.15.15L80,167l-.25-.17c-4.77-3.44-9.07-6.58-12.17-8.87l-3.66-2.74a10.62,10.62,0,0,1-1.3-1.06,10.06,10.06,0,0,1,1.42.89l3.75,2.61c3.16,2.21,7.49,5.3,12.27,8.75l.24.17-.33,0c4.27-3.95,8.15-7.49,11-10l3.36-3A10.36,10.36,0,0,1,95.54,152.56Z" style="fill:#e0e0e0"></path><path d="M63.68,176.4a72.44,72.44,0,0,1,5.11-7.14,74.55,74.55,0,0,1,5.52-6.82,73.84,73.84,0,0,1-5.11,7.14A76.28,76.28,0,0,1,63.68,176.4Z" style="fill:#e0e0e0"></path><path d="M85.26,161.62A72.59,72.59,0,0,1,91.14,168a71.29,71.29,0,0,1,5.49,6.75,74.31,74.31,0,0,1-5.88-6.41A72.8,72.8,0,0,1,85.26,161.62Z" style="fill:#e0e0e0"></path><rect x="88.17" y="175.22" width="38.66" height="57.36" transform="translate(-113.81 268.36) rotate(-78.44)" style="fill:#FFFFFF"></rect><path d="M139.47,190.71a4.51,4.51,0,0,1-.63.39L137,192.16l-6.84,3.78-22.71,12.34-.18.1-.14-.16-.33-.4L90.08,187.66l-5-6.15-1.35-1.68a3.87,3.87,0,0,1-.44-.62,4.09,4.09,0,0,1,.52.55l1.42,1.62c1.26,1.47,3,3.53,5.15,6.05l16.84,20.06.33.4-.32-.07L130,195.62,136.9,192l1.89-1A3.8,3.8,0,0,1,139.47,190.71Z" style="fill:#263238"></path><path d="M75.53,217.09c-.09-.11,5.19-4.44,11.8-9.66s12-9.37,12.14-9.26-5.2,4.44-11.81,9.67S75.61,217.21,75.53,217.09Z" style="fill:#263238"></path><path d="M118.24,201.52c.13-.07,3.26,5.94,7,13.41s6.63,13.59,6.5,13.66-3.25-6-7-13.42S118.12,201.58,118.24,201.52Z" style="fill:#263238"></path></g><g id="freepik--Character--inject-14"><path d="M331.63,312.56c9,.1,11.77-12.33,3.5-15.9l-.2-.08a22.85,22.85,0,0,0-20.85,1.82A26.25,26.25,0,0,0,275,281.94c-1.63-16.94-10.22-33.33-24-43.36s-32.56-13.16-48.43-7-28,21.74-28.79,38.73A33.44,33.44,0,0,0,148.82,278c-.22.18-.43.37-.65.58-12.15,11.44-3.74,32,13,32.14Z" style="fill:#ebebeb"></path><path d="M213.93,268.38a4,4,0,0,1-1.3-.11,8.5,8.5,0,0,1,2.6,0A4,4,0,0,1,213.93,268.38Z" style="fill:#e0e0e0"></path><path d="M344.56,306.66l.17-7.93-14.84-.43-.38,11.6.91.08c4.09.35,20.82,1.47,23.59.72C357.09,309.86,344.56,306.66,344.56,306.66Z" style="fill:#FFFFFF"></path><g style="opacity:0.4"><path d="M350.67,308.44s4.39,1.4,3.81,2.11-17.52.22-25-.65l0-.33,19.76.74S349.81,308.45,350.67,308.44Z" style="fill:#fff"></path></g><path d="M329.31,309.55l.25,0,.73.06,2.7.2c2.27.14,5.42.31,8.9.41s6.63.13,8.92.12l2.7,0,.73,0,.26,0-.26,0h-.73l-2.7,0c-2.28,0-5.43-.06-8.91-.17s-6.63-.24-8.91-.36l-2.69-.14-.74,0Z" style="fill:#263238"></path><path d="M349.29,310.54a6.61,6.61,0,0,1,.55-1.27,5.67,5.67,0,0,1,1-1,1.92,1.92,0,0,0-1.1.9A2,2,0,0,0,349.29,310.54Z" style="fill:#263238"></path><path d="M345,308.19s.26-.22.48-.55.38-.63.34-.66-.26.22-.49.56S344.94,308.17,345,308.19Z" style="fill:#263238"></path><path d="M343.8,307.52s.27-.11.53-.33.45-.43.42-.47-.27.11-.54.33S343.76,307.49,343.8,307.52Z" style="fill:#263238"></path><path d="M343.08,306.1a1.75,1.75,0,0,0,.77.12,1.68,1.68,0,0,0,.78-.06,1.84,1.84,0,0,0-.77-.12A1.68,1.68,0,0,0,343.08,306.1Z" style="fill:#263238"></path><path d="M342.84,305.1a1.49,1.49,0,0,0,.86.28,1.65,1.65,0,0,0,.9-.09,4.61,4.61,0,0,0-.88-.09A4.66,4.66,0,0,0,342.84,305.1Z" style="fill:#263238"></path><path d="M345.52,306.91a2.69,2.69,0,0,0,1,0,5.78,5.78,0,0,0,1-.2,2.89,2.89,0,0,0,.59-.22.54.54,0,0,0,.24-.29.4.4,0,0,0-.13-.39,1.75,1.75,0,0,0-2.18.45,1.59,1.59,0,0,0-.33.63.57.57,0,0,0,0,.26,2.41,2.41,0,0,1,.45-.8,1.81,1.81,0,0,1,.83-.51,1.51,1.51,0,0,1,1.14.11c.15.12.08.29-.09.39a2.52,2.52,0,0,1-.54.21,5.74,5.74,0,0,1-1,.23C345.88,306.89,345.52,306.88,345.52,306.91Z" style="fill:#263238"></path><path d="M345.77,307a1,1,0,0,0,.13-.66,1.71,1.71,0,0,0-.24-.71,1,1,0,0,0-.78-.51.39.39,0,0,0-.31.44,1,1,0,0,0,.15.43,2.91,2.91,0,0,0,.43.59,1.33,1.33,0,0,0,.54.4s-.19-.18-.44-.49a3.07,3.07,0,0,1-.39-.58c-.12-.21-.2-.57,0-.61s.48.23.62.43a1.59,1.59,0,0,1,.25.62A5.62,5.62,0,0,1,345.77,307Z" style="fill:#263238"></path><path d="M329.73,305.5s.42,0,1.09.07a4.62,4.62,0,0,1,3.8,3.21,10.79,10.79,0,0,1,.25,1.07.89.89,0,0,0,0-.3,4.15,4.15,0,0,0-.14-.81,4.53,4.53,0,0,0-1.44-2.25,4.6,4.6,0,0,0-2.46-1.05,4.4,4.4,0,0,0-.82,0A.8.8,0,0,0,329.73,305.5Z" style="fill:#263238"></path><path d="M331.45,299.36a25.69,25.69,0,0,0-.22,3.05,26.27,26.27,0,0,0,0,3,25.15,25.15,0,0,0,.22-3A26.46,26.46,0,0,0,331.45,299.36Z" style="fill:#263238"></path><path d="M336.8,308.54a8,8,0,0,0,2.16.28,8.23,8.23,0,0,0,2.18-.11s-1,0-2.17-.07S336.81,308.49,336.8,308.54Z" style="fill:#263238"></path><path d="M333.89,308.45s.08.21.17.44.14.42.19.42.08-.23,0-.49S333.93,308.42,333.89,308.45Z" style="fill:#263238"></path><path d="M332.84,307.06s.05.19.2.35.3.26.34.23-.06-.19-.21-.36S332.87,307,332.84,307.06Z" style="fill:#263238"></path><path d="M331.29,306.39c0,.05.2.05.42.13s.37.21.41.18-.08-.25-.35-.34S331.27,306.34,331.29,306.39Z" style="fill:#263238"></path><path d="M330.18,306.06c0,.05.06.12.18.18s.24.05.26,0-.07-.13-.19-.18S330.2,306,330.18,306.06Z" style="fill:#263238"></path><polygon points="329.76 305.1 344.6 305.29 344.63 303.5 329.67 304.16 329.76 305.1" style="opacity:0.30000000000000004"></polygon><path d="M328.84,306.5l.18-7.92-14.85-.43-.38,11.59.92.09c4.09.34,20.82,1.46,23.58.71C341.37,309.7,328.84,306.5,328.84,306.5Z" style="fill:#FFFFFF"></path><g style="opacity:0.4"><path d="M335,308.29s4.38,1.4,3.81,2.11-17.52.22-25-.66l0-.33,19.77.75S334.09,308.3,335,308.29Z" style="fill:#fff"></path></g><path d="M313.59,309.4l.26,0,.73.07,2.69.19c2.28.15,5.43.31,8.91.42s6.63.13,8.91.12l2.7,0,.74,0a.67.67,0,0,0,.25,0h-.25l-.74,0-2.7,0c-2.28,0-5.43-.07-8.91-.17s-6.62-.25-8.9-.36l-2.7-.14-.73,0Z" style="fill:#263238"></path><path d="M333.58,310.39a6.19,6.19,0,0,1,.54-1.27,6.46,6.46,0,0,1,.95-1,2.05,2.05,0,0,0-1.1.91A2,2,0,0,0,333.58,310.39Z" style="fill:#263238"></path><path d="M329.26,308c.05,0,.26-.22.49-.56s.38-.62.34-.65-.26.22-.49.55S329.22,308,329.26,308Z" style="fill:#263238"></path><path d="M328.08,307.37s.27-.11.53-.33.45-.44.42-.48-.27.12-.53.34S328.05,307.33,328.08,307.37Z" style="fill:#263238"></path><path d="M327.36,306a1.84,1.84,0,0,0,.77.12,1.86,1.86,0,0,0,.78-.06,1.59,1.59,0,0,0-.77-.12A1.68,1.68,0,0,0,327.36,306Z" style="fill:#263238"></path><path d="M327.13,305a1.53,1.53,0,0,0,.86.28,1.46,1.46,0,0,0,.89-.1,5,5,0,0,0-.87-.08A4.66,4.66,0,0,0,327.13,305Z" style="fill:#263238"></path><path d="M329.81,306.76a2.55,2.55,0,0,0,.95,0,4.85,4.85,0,0,0,1-.19,2.56,2.56,0,0,0,.59-.23.53.53,0,0,0,.25-.28.38.38,0,0,0-.14-.39,1.76,1.76,0,0,0-2.18.45,1.83,1.83,0,0,0-.33.63.53.53,0,0,0,0,.25,3.22,3.22,0,0,1,.46-.8,1.67,1.67,0,0,1,.83-.5,1.47,1.47,0,0,1,1.14.11c.14.11.08.29-.09.39a3.29,3.29,0,0,1-.55.21,8.38,8.38,0,0,1-1,.23C330.17,306.74,329.81,306.73,329.81,306.76Z" style="fill:#263238"></path><path d="M330.05,306.81s.16-.22.13-.65a1.62,1.62,0,0,0-.24-.71,1,1,0,0,0-.78-.51.38.38,0,0,0-.31.43,1.21,1.21,0,0,0,.15.43,2.66,2.66,0,0,0,.44.59,1.45,1.45,0,0,0,.53.41s-.18-.18-.44-.49a3.64,3.64,0,0,1-.38-.58c-.12-.21-.2-.57,0-.61s.47.23.61.42a1.66,1.66,0,0,1,.26.63A3,3,0,0,1,330.05,306.81Z" style="fill:#263238"></path><path d="M314,305.34s.43,0,1.1.07a4.68,4.68,0,0,1,3.8,3.22c.2.64.21,1.07.25,1.07a.93.93,0,0,0,0-.3,3.92,3.92,0,0,0-.14-.81,4.67,4.67,0,0,0-1.44-2.26,4.57,4.57,0,0,0-2.46-1,3.79,3.79,0,0,0-.82,0Z" style="fill:#263238"></path><path d="M315.73,299.21a26.88,26.88,0,0,0-.21,3.05,23.85,23.85,0,0,0,0,3.05,28.2,28.2,0,0,0,.22-3.05A24.88,24.88,0,0,0,315.73,299.21Z" style="fill:#263238"></path><path d="M321.09,308.39a8.93,8.93,0,0,0,2.16.28,8.77,8.77,0,0,0,2.18-.11c0-.06-1,0-2.17-.07S321.1,308.34,321.09,308.39Z" style="fill:#263238"></path><path d="M318.18,308.3s.07.21.16.43.15.43.2.42.08-.23,0-.49S318.21,308.26,318.18,308.3Z" style="fill:#263238"></path><path d="M317.12,306.9s.06.19.21.35.3.27.33.23-.05-.19-.2-.35S317.16,306.87,317.12,306.9Z" style="fill:#263238"></path><path d="M315.57,306.23s.21.06.42.14.37.2.41.17-.08-.24-.34-.34S315.56,306.19,315.57,306.23Z" style="fill:#263238"></path><path d="M314.46,305.91s.07.12.19.17.23.06.25,0-.06-.12-.18-.17S314.48,305.86,314.46,305.91Z" style="fill:#263238"></path><polygon points="314.05 304.95 328.88 305.13 328.91 303.35 313.95 304 314.05 304.95" style="opacity:0.30000000000000004"></polygon><path d="M254,277,338,227.67a14.91,14.91,0,0,1,12.16-1.32h0a17.45,17.45,0,0,1,11.41,11.17,19.41,19.41,0,0,1,.12,11.59l-14.27,55.16-25.46.58,14-46.58L294.3,286.65A27.32,27.32,0,0,1,254,277Z" style="fill:#263238"></path><path d="M240.32,276.37l83.95-49.29a14.87,14.87,0,0,1,12.16-1.31h0a17.43,17.43,0,0,1,11.41,11.16,19.41,19.41,0,0,1,.12,11.59l-14.39,55.61-25.33.14,14-46.59-41.61,28.38a27.31,27.31,0,0,1-40.3-9.69Z" style="fill:#455a64"></path><path d="M283.76,226.17s2.14,22.87,0,25.06l-5.05,2.6-11.31-7.66Z" style="fill:#FFFFFF"></path><path d="M283.76,226.17s2.14,22.87,0,25.06l-5.05,2.6-11.31-7.66Z" style="opacity:0.4"></path><path d="M246.48,197.12c3.2-.48-24.36-3.23-25.29,19.79S240.32,277,240.32,277l38.39-23.2S269.5,247.33,268,243C266.61,238.82,269.2,199.67,246.48,197.12Z" style="fill:#FFFFFF"></path><path d="M228.58,201.66c-1.17.29-10,8.22-10.07,24.05-.09,12.58.88,40.51,9.47,44.66,3.89,1.88,8.59,1.22,13.72-2.1,14.45-9.34,41.26-38.81,41.26-38.81l-11.46-12.2s-29.75,30.26-31,29.15c-1.91-1.67-1.62-17.39-3.24-31.68C236.08,204.58,235.85,199.85,228.58,201.66Z" style="fill:#FFFFFF"></path><path d="M271.08,242s0,.08-.14.21l-.45.56c-.4.5-1,1.22-1.8,2.13-1.59,1.83-3.94,4.43-7,7.49a124.56,124.56,0,0,1-11.38,10.07,78.61,78.61,0,0,1-7.39,5.12,31.59,31.59,0,0,1-8.84,3.93,8.81,8.81,0,0,1-2.51.23,4.59,4.59,0,0,1-1.26-.23,7.32,7.32,0,0,1-1.14-.51,11.79,11.79,0,0,1-3.67-3.11,23.18,23.18,0,0,1-3.89-8.12,54.73,54.73,0,0,1-1.54-8c-.34-2.52-.62-4.87-.84-7-.45-4.31-.64-7.81-.7-10.23,0-1.21,0-2.15,0-2.78,0-.29,0-.53,0-.73a.12.12,0,1,1,.06,0l0,.73c0,.67.07,1.6.13,2.78.12,2.41.36,5.9.85,10.19.25,2.14.55,4.49.91,7a55.64,55.64,0,0,0,1.57,7.92,22.93,22.93,0,0,0,3.82,7.94c1.88,2.32,4.83,4.46,8.08,3.43a31.66,31.66,0,0,0,8.69-3.85,79,79,0,0,0,7.35-5.07,130.17,130.17,0,0,0,11.42-10c3.09-3,5.48-5.57,7.11-7.36l1.87-2.06.49-.53Z" style="fill:#263238"></path><path d="M271.5,217.26a5.45,5.45,0,0,1-.54.64c-.37.41-.9,1-1.62,1.78-1.43,1.53-3.54,3.71-6.21,6.37s-5.9,5.8-9.55,9.25l-5.77,5.4c-2.05,1.85-4.1,3.79-6.42,5.66l-.38.31,0-.51c-.07-1.11-.14-2.29-.21-3.49-.35-6.25-.7-12.21-1-17.63-.18-2.71-.21-5.29-.48-7.67a18.87,18.87,0,0,0-1.74-6.38,10.75,10.75,0,0,0-3.47-4.13,8.35,8.35,0,0,0-3.83-1.39,6.8,6.8,0,0,0-2.59.22c-.58.16-.86.31-.87.28a3.27,3.27,0,0,1,.84-.38,6.76,6.76,0,0,1,2.63-.33,8.51,8.51,0,0,1,4,1.36,10.92,10.92,0,0,1,3.64,4.2,19,19,0,0,1,1.84,6.5c.29,2.41.34,5,.53,7.7.33,5.42.68,11.37,1,17.63.07,1.19.14,2.38.21,3.49l-.41-.2c2.24-1.81,4.34-3.78,6.38-5.61l5.79-5.37c3.67-3.43,6.92-6.54,9.62-9.16s4.85-4.77,6.32-6.26l1.69-1.71A4.35,4.35,0,0,1,271.5,217.26Z" style="fill:#263238"></path><path d="M278.54,234.22a11,11,0,0,1-1.83-1.67c-1.08-1.08-2.54-2.59-4.14-4.28s-3-3.25-4-4.39A13.08,13.08,0,0,1,267,222a11.52,11.52,0,0,1,1.83,1.67c1.07,1.07,2.54,2.59,4.13,4.28s3,3.24,4,4.39A11.94,11.94,0,0,1,278.54,234.22Z" style="fill:#263238"></path><path d="M238.51,253.25a11.58,11.58,0,0,1,1-3.79,11,11,0,0,1,1.76-3.48,22.35,22.35,0,0,1-1.27,3.67A21.28,21.28,0,0,1,238.51,253.25Z" style="fill:#263238"></path><path d="M235.94,251.23A28.74,28.74,0,0,1,241.7,246,15.45,15.45,0,0,1,239,248.8,14.81,14.81,0,0,1,235.94,251.23Z" style="fill:#263238"></path><path d="M270.88,220.77c.05.06-.17.28-.12.67a.58.58,0,0,0,.32.47.65.65,0,0,0,.67,0,.67.67,0,0,0,.2-.64.57.57,0,0,0-.39-.42c-.36-.14-.63,0-.67-.05s.18-.39.76-.31a1,1,0,0,1,.76.64,1.1,1.1,0,0,1-.34,1.19,1.09,1.09,0,0,1-1.23.05,1,1,0,0,1-.45-.89C270.46,220.85,270.86,220.71,270.88,220.77Z" style="fill:#263238"></path><g style="opacity:0.4"><path d="M238.15,270.62A41.63,41.63,0,0,0,268.32,245c-9.11,9.53-18.47,19.25-30.23,25.21"></path></g><g style="opacity:0.4"><path d="M239.42,215.12q2.43,10.19,4.87,20.36a15.11,15.11,0,0,1,.61,6,5.18,5.18,0,0,1-3.67,4.37l-2-30.53"></path></g><path d="M227,178.74a8.53,8.53,0,0,0-12.49,8c.12,2.25,1.1,4.64.1,6.67-1.29,2.62-5.44,3.54-5.55,6.46-.07,2,1.93,3.52,2.07,5.49.12,1.67-1.09,3.09-1.86,4.57a10,10,0,0,0,2.92,12.1,11,11,0,0,0,12.65,0,12.26,12.26,0,0,0,4.65-12c-.46-2.48-1.66-4.89-1.33-7.39a29.32,29.32,0,0,0,.75-3.89c0-3.84-4.75-6.13-5.46-9.91a5.33,5.33,0,0,1,5.71-6" style="fill:#263238"></path><path d="M251.34,198.71c.12-3,.28-5.65.28-5.65s6.63-.84,6.92-7.61-.39-22.35-.39-22.35L246,157.24,234.42,168l.45,30.89a8.25,8.25,0,0,0,8.61,7.69h0A8.25,8.25,0,0,0,251.34,198.71Z" style="fill:#cc8b75"></path><path d="M247,174.05a.85.85,0,1,1-.86-.85A.86.86,0,0,1,247,174.05Z" style="fill:#263238"></path><path d="M247.76,173.7c-.1.12-.74-.41-1.64-.45s-1.59.43-1.68.3.06-.26.35-.47a2.11,2.11,0,0,1,1.35-.39,2.14,2.14,0,0,1,1.31.51C247.72,173.44,247.82,173.65,247.76,173.7Z" style="fill:#263238"></path><path d="M251.18,181.52a5.23,5.23,0,0,1,1.48-.23c.23,0,.45-.06.49-.22a1.34,1.34,0,0,0-.14-.75l-.66-1.92a33.3,33.3,0,0,1-1.46-5,35.71,35.71,0,0,1,1.83,4.88l.63,1.93a1.54,1.54,0,0,1,.1,1,.53.53,0,0,1-.38.35,1.51,1.51,0,0,1-.4.05A6,6,0,0,1,251.18,181.52Z" style="fill:#263238"></path><path d="M251.62,193.06a16.11,16.11,0,0,1-8.78-2.88s2.07,4.94,8.67,4.54Z" style="fill:#b26752"></path><path d="M225.69,174.49h0c0,5.86-1.7,13.55,9,15.69l1-14s9.55-2.76,10.8-14.6l.06.06c.67,1.53,1.85,4.82,1.13,7.5l9.68,2.39,1.12,1a13.32,13.32,0,0,0-3.21-14.41c-6.65-6.86-12.33-1.89-15.9-2.32-2.17-.26-8.8-.45-12.47,10.43a22,22,0,0,0-1.08,5.74Z" style="fill:#263238"></path><path d="M235.71,176.22c-1.23-1.35-3.15-.19-3.87.59a3.89,3.89,0,0,0,3.87,6.39" style="fill:#cc8b75"></path><path d="M234.48,181.17c0,.07-.3.14-.79,0a2.06,2.06,0,0,1-1.46-1.28,1.52,1.52,0,0,1,.05-1.15,1.57,1.57,0,0,1,.6-.68c.44-.28.77-.24.78-.18s-.25.18-.55.47a1.29,1.29,0,0,0-.39,1.37,2,2,0,0,0,1.1,1.1C234.21,181,234.49,181.1,234.48,181.17Z" style="fill:#b26752"></path><path d="M233.6,182.51a.76.76,0,1,0,.29,0" style="fill:#FFFFFF"></path><path d="M226.54,184.19a6.55,6.55,0,0,1-1-3,6.4,6.4,0,0,1,.11-3.16,20.87,20.87,0,0,1,.41,3.09A18.79,18.79,0,0,1,226.54,184.19Z" style="fill:#FFFFFF"></path><polygon points="272.86 218.97 290.95 197.12 292.48 198.58 274.6 220.6 272.86 218.97" style="fill:#263238"></polygon><path d="M274.31,217.85s2.84-8.09,3.48-9.81,1.73-4.73,2.17-4.8,2,.14.09,5.28,2.54,1.91,2.54,1.91l3.93-4.5s3.94,10.5,2,13.69a84.53,84.53,0,0,1-6.64,8.79l-8.65-9.27Z" style="fill:#cc8b75"></path><path d="M249.91,182.33a1.64,1.64,0,0,0-1.32.87,1.6,1.6,0,0,0,.1,1.57,1.58,1.58,0,0,0,1.41.7,1.31,1.31,0,0,0,.87-.38,1.75,1.75,0,0,0,.3-1.56,1.72,1.72,0,0,0-.42-.89.82.82,0,0,0-.9-.2" style="fill:#b26752"></path><path d="M251.62,184.12c0,.14-1,.34-2.12-.24s-1.56-1.54-1.43-1.6.69.65,1.67,1.14S251.62,184,251.62,184.12Z" style="fill:#263238"></path><path d="M256.62,174a.85.85,0,0,1-.83.88.86.86,0,0,1-.86-.85.85.85,0,1,1,1.69,0Z" style="fill:#263238"></path><path d="M257.44,173.61c-.11.12-.74-.41-1.65-.45s-1.58.43-1.68.3.06-.26.36-.47a2.1,2.1,0,0,1,1.34-.39,2.14,2.14,0,0,1,1.31.51C257.4,173.35,257.49,173.56,257.44,173.61Z" style="fill:#263238"></path><path d="M247.09,170.75c0,.15-.86.1-1.84.29s-1.74.54-1.82.42.62-.72,1.72-.93S247.12,170.62,247.09,170.75Z" style="fill:#263238"></path><path d="M300.21,290.42a24.79,24.79,0,0,0-30.62,4.34,17.77,17.77,0,0,0-27-3.68c-1-7.38-4.49-14.63-10.5-19s-14.63-5.44-21-1.59l-9,22.6,32.23,13.07,42.66,3.12Z" style="fill:#ebebeb"></path><path d="M211.05,270.46c-.07-.1.84-1,2.93-1.85a18.09,18.09,0,0,1,9.55-1,21.5,21.5,0,0,1,6.49,2.05,22.61,22.61,0,0,1,6.3,4.79,30.44,30.44,0,0,1,7.49,16.5l-2.13-.77a19.19,19.19,0,0,1,9.43-4.68,18.55,18.55,0,0,1,11.46,1.5,19.15,19.15,0,0,1,8,7.16l-1.89-.19a25.83,25.83,0,0,1,12-7,24.78,24.78,0,0,1,10.85-.34,22.18,22.18,0,0,1,6.6,2.36c1.42.79,2.08,1.38,2,1.48s-.86-.23-2.34-.78a28.62,28.62,0,0,0-6.51-1.62,24.82,24.82,0,0,0-10.08.84,24.55,24.55,0,0,0-10.82,6.72l-1,1.12-.85-1.31a16.94,16.94,0,0,0-7.09-6.12,16.15,16.15,0,0,0-9.89-1.25,17,17,0,0,0-8.18,4l-1.82,1.64-.31-2.42a29,29,0,0,0-6.63-15.33,20.88,20.88,0,0,0-5.56-4.54,20.61,20.61,0,0,0-5.85-2.16,19,19,0,0,0-9,.25C212.21,270.05,211.15,270.63,211.05,270.46Z" style="fill:#e0e0e0"></path></g><g id="freepik--speech-bubble--inject-14"><path d="M199.12,139.07a4.34,4.34,0,0,1,1.57,1.53,8.62,8.62,0,0,1,1.5,5.8,11,11,0,0,1-4.47,7.65,10.38,10.38,0,0,1-5,2,9.8,9.8,0,0,1-5.67-1.12,9.93,9.93,0,0,1-4.12-4.05,9.77,9.77,0,0,1-1.09-5.27,10.38,10.38,0,0,1,1.43-4.63,10.5,10.5,0,0,1,2.82-3.13,12.08,12.08,0,0,1,5.54-2.28,5.44,5.44,0,0,1,2.19,0c0,.09-.77.11-2.11.41a12.81,12.81,0,0,0-5.16,2.48,9.9,9.9,0,0,0-2.53,3,9.58,9.58,0,0,0-1.22,4.26,9,9,0,0,0,1,4.73,9.21,9.21,0,0,0,8.79,4.64,9.66,9.66,0,0,0,4.53-1.77,10.41,10.41,0,0,0,4.3-7,8.64,8.64,0,0,0-1.11-5.5C199.65,139.65,199.05,139.14,199.12,139.07Z" style="fill:#FFFFFF"></path><path d="M189.71,132.56c.19-.35,2.14.95,4.32,2.79l.46.38-.46.4-.27.24c-2.28,2-4.28,3.41-4.47,3.2s1.51-2,3.79-4l.27-.23v.78A21.1,21.1,0,0,1,189.71,132.56Z" style="fill:#FFFFFF"></path><path d="M218.77,168.25s-.28-.05-.88-.19l-2.71-.63c-2.38-.55-6-1.36-10.48-2.47l.23,0a23.35,23.35,0,0,1-12.19,3.71,25.39,25.39,0,0,1-7.57-1.09,23.26,23.26,0,0,1-7.4-3.9,23.72,23.72,0,0,1-9-15.79,24.23,24.23,0,0,1,.88-10,23.94,23.94,0,0,1,5.21-9,23.67,23.67,0,0,1,41.14,16,23.31,23.31,0,0,1-3.43,12.23v-.29c2.05,3.7,3.6,6.62,4.63,8.56.51.94.9,1.67,1.17,2.18a7.66,7.66,0,0,1,.37.72s-.19-.29-.49-.8-.76-1.26-1.33-2.21c-1.15-1.93-2.81-4.66-4.84-8.17l-.08-.14.08-.14a22.89,22.89,0,0,0-18.21-34.5,22.69,22.69,0,0,0-18.24,7.31,22.78,22.78,0,0,0,2.68,33.32,22.65,22.65,0,0,0,7.09,3.81,24.93,24.93,0,0,0,7.3,1.12,23,23,0,0,0,11.89-3.43l.11-.07.12,0c4.32,1.14,7.74,2.12,10.15,2.79l2.77.77C218.4,168.13,218.75,168.23,218.77,168.25Z" style="fill:#263238"></path></g><g id="freepik--Arrows--inject-14"><path d="M172.71,377.26a7.67,7.67,0,0,1-1.51-.37c-.5-.15-1.11-.31-1.82-.54l-2.44-.86a92.19,92.19,0,0,1-14.85-7.14c-3-1.77-6.2-3.86-9.52-6.25s-6.75-5.14-10.18-8.22a142.27,142.27,0,0,1-10.26-10.18,145.89,145.89,0,0,1-9.75-12.06,143.91,143.91,0,0,1-8.32-13.11,137.7,137.7,0,0,1-6.31-13,126.49,126.49,0,0,1-9.52-39.65c-.08-1.93-.14-3.43-.18-4.48a10.29,10.29,0,0,1,0-1.56,8,8,0,0,1,.21,1.55c.08,1.05.21,2.54.37,4.45a147.93,147.93,0,0,0,2.6,16.2,129.6,129.6,0,0,0,7.41,23.12A139.74,139.74,0,0,0,105,318a139.18,139.18,0,0,0,17.94,25c3.34,3.7,6.76,7.07,10.14,10.15s6.8,5.78,10.05,8.23,6.43,4.52,9.39,6.31a100.45,100.45,0,0,0,14.61,7.4l2.4.95,1.78.63A9.29,9.29,0,0,1,172.71,377.26Z" style="fill:#263238"></path><path d="M164.07,379.54c0-.28,4.41-1.22,10-2.1l-.32.84-.18-.22c-3.65-4.5-6.44-8.3-6.21-8.48s3.36,3.32,7,7.83l.17.21.58.71-.9.13C168.64,379.34,164.11,379.81,164.07,379.54Z" style="fill:#263238"></path><path d="M405.78,204.44s.08.14.18.43.23.74.41,1.29.39,1.28.62,2.12.45,1.83.71,2.93a108.15,108.15,0,0,1,2.46,19c.19,4.06.17,8.51,0,13.28s-.72,9.85-1.54,15.16-1.93,10.83-3.4,16.49a173.23,173.23,0,0,1-5.57,17.2,169.1,169.1,0,0,1-7.48,16.46c-1.41,2.56-2.75,5.1-4.24,7.49s-2.95,4.71-4.43,6.95a147.2,147.2,0,0,1-18.14,22,150.87,150.87,0,0,1-14.45,12.64l-4.24,3-1.12.77c-.26.17-.39.25-.4.23a1.66,1.66,0,0,1,.34-.32l1.05-.85,4.12-3.19a170.86,170.86,0,0,0,14.18-12.84,152.66,152.66,0,0,0,17.87-22c1.46-2.24,3-4.51,4.37-6.94s2.79-4.9,4.18-7.44A168.28,168.28,0,0,0,398.64,292a176.36,176.36,0,0,0,5.55-17.08c1.48-5.62,2.58-11.11,3.44-16.38s1.31-10.32,1.63-15.06.31-9.16.16-13.2a117.25,117.25,0,0,0-2.11-19c-.23-1.11-.44-2.09-.62-2.94s-.38-1.55-.52-2.14-.24-1-.31-1.32A2,2,0,0,1,405.78,204.44Z" style="fill:#263238"></path><path d="M413.51,211.43c-.21.19-3.93-3.59-8.37-8.5l.88-.19-.1.3c-2.06,6.44-4,11.59-4.24,11.5s1.18-5.37,3.25-11.81l.1-.31.28-.86.6.67C410.34,207.15,413.72,211.24,413.51,211.43Z" style="fill:#263238"></path><path d="M334.9,99.34a3.1,3.1,0,0,1-.51-.32L333,98l-2.27-1.7c-.9-.67-2-1.32-3.23-2.13a121.53,121.53,0,0,0-22-10.94c-4.86-1.84-10.27-3.67-16.17-5.3-2.95-.8-6-1.6-9.2-2.29-1.59-.36-3.21-.7-4.85-1-.82-.16-1.65-.31-2.48-.44l-2.55-.32a155.34,155.34,0,0,0-44.56,0A168.71,168.71,0,0,0,182.7,86,162.91,162.91,0,0,0,151,104.13l-3,2.29c-1,.74-2,1.44-2.85,2.23l-5,4.3-1.16,1-1.05,1-2,1.93-3.47,3.39-4.49,5-1.19,1.29a2.94,2.94,0,0,1-.43.41,2.66,2.66,0,0,1,.35-.48l1.11-1.35,4.35-5.13,3.42-3.46,2-2,1-1,1.15-1,5-4.38c.87-.81,1.85-1.52,2.83-2.27s2-1.53,3-2.33a160.4,160.4,0,0,1,31.72-18.38,167.52,167.52,0,0,1,43.16-12.28,154.71,154.71,0,0,1,44.85,0l2.56.33c.84.14,1.68.29,2.51.46,1.65.32,3.28.67,4.87,1,3.2.72,6.27,1.53,9.23,2.36,5.92,1.67,11.34,3.55,16.21,5.44a115.11,115.11,0,0,1,22,11.29c1.2.84,2.31,1.52,3.19,2.22l2.22,1.78,1.35,1.11A3.21,3.21,0,0,1,334.9,99.34Z" style="fill:#263238"></path><path d="M126.68,116.55c.28,0-.19,5.33-1.07,11.89l-.71-.55.29-.12c6.25-2.59,11.41-4.47,11.52-4.21s-4.87,2.58-11.12,5.17l-.29.12-.84.35.12-.9C125.47,121.74,126.4,116.52,126.68,116.55Z" style="fill:#263238"></path></g></svg>