<!--?xml version="1.0" standalone="no"?-->
              <svg id="sw-js-blob-svg" viewBox="0 0 100 100" xmlns="http://www.w3.org/2000/svg" version="1.1">
                    <defs> 
                        <linearGradient id="sw-gradient" x1="0" x2="1" y1="1" y2="0">
                            <stop id="stop1" stop-color="rgba(0, 148.128, 242.656, 1)" offset="0%"></stop>
                            <stop id="stop2" stop-color="rgba(0, 26.094, 255, 1)" offset="100%"></stop>
                        </linearGradient>
                    </defs>
                <path fill="url(#sw-gradient)" d="M24.5,-27C31.8,-23.1,37.6,-15.4,39.2,-6.8C40.8,1.7,38.2,11.1,33,18C27.8,24.9,20,29.3,11.3,33.5C2.6,37.7,-7,41.7,-15.3,39.7C-23.7,37.7,-30.7,29.8,-34.5,21C-38.3,12.2,-38.9,2.6,-35.9,-4.9C-32.9,-12.5,-26.4,-18.1,-19.8,-22.1C-13.2,-26.1,-6.6,-28.5,1,-29.7C8.6,-30.9,17.3,-30.9,24.5,-27Z" width="100%" height="100%" transform="translate(50 50)" stroke-width="0" style="transition: all 0.3s ease 0s;"></path>
              </svg>