<svg xmlns="http://www.w3.org/2000/svg" enable-background="new 0 0 50 50" viewBox="0 0 50 50"><path fill="#444445" d="M46.66,10.025v27.8H29.68c-0.38,0-0.74,0.22-0.9,0.5699l-0.29,0.62c-0.16,0.35-0.52,0.57-0.9,0.57h-5.18
			c-0.38,0-0.74-0.22-0.9-0.57l-0.29-0.62c-0.16-0.35-0.52-0.5699-0.9-0.5699H3.35v-27.8c0-1.38,1.12-2.5,2.5-2.5h38.31
			C45.54,7.525,46.66,8.645,46.66,10.025z"/><rect width="37.777" height="24.764" x="6.114" y="10.291" fill="#FFF"/><path fill="#C7C7C7" d="M49,37.825c0,1.28-0.52,2.4399-1.36,3.28c-0.84,0.84-2,1.37-3.29,1.37H5.65c-2.56,0-4.65-2.09-4.65-4.65
			h19.32c0.38,0,0.74,0.22,0.9,0.5699l0.29,0.62c0.16,0.35,0.52,0.57,0.9,0.57h5.18c0.38,0,0.74-0.22,0.9-0.57l0.29-0.62
			c0.16-0.35,0.52-0.5699,0.9-0.5699H49z"/><circle cx="7.03" cy="40.146" r="1" fill="#896A9D"/><circle cx="10.584" cy="40.146" r="1" fill="#D75548"/><rect width="37.777" height="2" x="6.114" y="30.384" fill="#FFCA67"/><path fill="#35A9D9" d="M16.8371,16.003v14.38h-6v-14.38c0-0.28,0.23-0.5,0.5-0.5h5C16.6172,15.503,16.8371,15.723,16.8371,16.003
			z"/><rect width="4.394" height=".5" x="11.64" y="16.857" fill="#FFF"/><rect width="4.394" height=".5" x="11.64" y="18.107" fill="#FFF"/><rect width="4.394" height=".5" x="11.64" y="27.279" fill="#FFF"/><rect width="4.394" height=".5" x="11.64" y="28.529" fill="#FFF"/><path fill="#83BD57" d="M32.0885,16.003v14.38h-6v-14.38c0-0.28,0.23-0.5,0.5-0.5h5
				C31.8686,15.503,32.0885,15.723,32.0885,16.003z"/><rect width="4.394" height=".5" x="26.892" y="16.857" fill="#FFF"/><rect width="4.394" height=".5" x="26.892" y="18.107" fill="#FFF"/><rect width="4.394" height=".5" x="26.892" y="27.279" fill="#FFF"/><rect width="4.394" height=".5" x="26.892" y="28.529" fill="#FFF"/><path fill="#E9715F" d="M24.0092,13.9631v16.42h-5v-16.42c0-0.55,0.45-1,1-1h3C23.5592,12.9631,24.0092,13.413,24.0092,13.9631z"/><rect width="2.334" height="12" x="20.342" y="15.673" fill="#FFF"/><g><path fill="#9A7EAA" d="M39.1679,13.9631v16.42h-5v-16.42c0-0.55,0.45-1,1-1h3C38.7179,12.9631,39.1679,13.413,39.1679,13.9631z"/><rect width="2.334" height="12" x="35.501" y="15.673" fill="#FFF"/></g></svg>