<svg xmlns="http://www.w3.org/2000/svg" xmlns:xlink="http://www.w3.org/1999/xlink" width="64" height="64" viewBox="0 0 64 64"><defs><linearGradient id="a"><stop offset="0" stop-color="#000092"/><stop offset="1" stop-color="#ff00f3"/></linearGradient><linearGradient id="b" x1="8" x2="53" y1="32.5" y2="32.5" gradientUnits="userSpaceOnUse" xlink:href="#a"/></defs><path fill="url(#b)" fill-rule="evenodd" d="M 33.5 9 C 32.677495 9 32 9.67749 32 10.5 C 32 11.146837 32.420972 11.697775 33 11.90625 L 33 13.767578 L 29.986328 16.267578 L 29.996094 25 L 27 25 L 27 19.259766 L 22 15.259766 L 22 12.90625 C 22.579015 12.697768 22.999974 12.146813 23 11.5 C 23 10.67749 22.322505 10 21.5 10 C 20.677495 10 20 10.67749 20 11.5 C 20.000026 12.146813 20.420985 12.697768 21 12.90625 L 21 15.740234 L 26 19.740234 L 26 25 L 23.5 25 L 23.5 20.650391 L 19.917969 17.962891 C 19.966888 17.815632 20 17.662736 20 17.5 C 20 16.6775 19.322505 16 18.5 16 C 17.677495 16 17 16.6775 17 17.5 C 17 18.3225 17.677495 19 18.5 19 C 18.797249 19 19.074356 18.90965 19.308594 18.757812 L 22.5 21.150391 L 22.5 25 L 14.5 25 C 13.123649 25 12 26.1237 12 27.5 L 12 50 L 8.5 50 A 0.50005 0.50005 0 0 0 8 50.5 L 8 52.5 C 8 54.4304 9.5696486 56 11.5 56 L 52.5 56 C 54.430351 56 56 54.4304 56 52.5 L 56 50.5 A 0.50005 0.50005 0 0 0 55.5 50 L 52 50 L 52 27.5 C 52 26.1237 50.876351 25 49.5 25 L 41 25 L 41 21.150391 L 44.449219 18.564453 C 44.720749 18.832118 45.092651 19 45.5 19 C 46.322505 19 47 18.3225 47 17.5 C 47 16.6775 46.322505 16 45.5 16 C 44.677495 16 44 16.6775 44 17.5 C 44 17.547681 44.009222 17.592069 44.013672 17.638672 L 40 20.650391 L 40 25 L 38 25 L 38 19.740234 L 43 15.740234 L 43 12.90625 C 43.579015 12.697768 43.999974 12.146813 44 11.5 C 44 10.67749 43.322505 10 42.5 10 C 41.677495 10 41 10.67749 41 11.5 C 41.000026 12.146813 41.420985 12.697768 42 12.90625 L 42 15.259766 L 37 19.259766 L 37 25 L 34.001953 25 L 34.027344 18.246094 L 37.525391 15.625 C 37.789041 15.853827 38.127158 16 38.5 16 C 39.322505 16 40 15.3225 40 14.5 C 40 13.6775 39.322505 13 38.5 13 C 37.677495 13 37 13.6775 37 14.5 C 37 14.585986 37.01119 14.667792 37.025391 14.75 L 33.027344 17.744141 L 33.001953 25 L 30.996094 25 L 30.986328 16.736328 L 34 14.236328 L 34 11.90625 C 34.579028 11.697775 35 11.146837 35 10.5 C 35 9.67749 34.322505 9 33.5 9 z M 33.5 10 C 33.782065 10 34 10.21793 34 10.5 C 34 10.78206 33.782065 11 33.5 11 C 33.217935 11 33 10.78206 33 10.5 C 33 10.21793 33.217935 10 33.5 10 z M 21.5 11 C 21.782065 11 22 11.21793 22 11.5 C 21.999989 11.78207 21.782056 12 21.5 12 C 21.217944 12 21.000011 11.78207 21 11.5 C 21 11.21793 21.217935 11 21.5 11 z M 42.5 11 C 42.782065 11 43 11.21793 43 11.5 C 42.999989 11.78207 42.782056 12 42.5 12 C 42.217944 12 42.000011 11.78207 42 11.5 C 42 11.21793 42.217935 11 42.5 11 z M 38.5 14 C 38.782065 14 39 14.218 39 14.5 C 39 14.7821 38.782065 15 38.5 15 C 38.217935 15 38 14.7821 38 14.5 C 38 14.218 38.217935 14 38.5 14 z M 18.5 17 C 18.782065 17 19 17.218 19 17.5 C 19 17.7821 18.782065 18 18.5 18 C 18.217935 18 18 17.7821 18 17.5 C 18 17.218 18.217935 17 18.5 17 z M 45.5 17 C 45.782065 17 46 17.218 46 17.5 C 46 17.7821 45.782065 18 45.5 18 C 45.217935 18 45 17.7821 45 17.5 C 45 17.218 45.217935 17 45.5 17 z M 14.5 26 L 49.5 26 C 50.339649 26 51 26.6604 51 27.5 L 51 50 L 13 50 L 13 27.5 C 13 26.6604 13.660351 26 14.5 26 z M 15.5 28 A 0.50005 0.50005 0 0 0 15 28.5 L 15 47.5 A 0.50005 0.50005 0 0 0 15.5 48 L 48.5 48 A 0.50005 0.50005 0 0 0 49 47.5 L 49 28.5 A 0.50005 0.50005 0 0 0 48.5 28 L 15.5 28 z M 16 29 L 22.5 29 L 22.5 31.851562 L 19.310547 34.244141 C 19.075831 34.091388 18.798225 34 18.5 34 C 17.677495 34 17 34.6775 17 35.5 C 17 36.3225 17.677495 37 18.5 37 C 19.322505 37 20 36.3225 20 35.5 C 20 35.337915 19.966514 35.183857 19.917969 35.037109 L 23.5 32.351562 L 23.5 29 L 26 29 L 26 33.259766 L 21 37.259766 L 21 40.091797 C 20.420972 40.30028 20 40.853163 20 41.5 C 20 42.3225 20.677495 43 21.5 43 C 22.322505 43 23 42.3225 23 41.5 C 23 40.853163 22.579028 40.30028 22 40.091797 L 22 37.740234 L 27 33.740234 L 27 29 L 29.990234 29 L 30 36.257812 L 27.328125 38.253906 C 27.089992 38.094405 26.805348 38 26.5 38 C 25.677495 38 25 38.6775 25 39.5 C 25 40.3225 25.677495 41 26.5 41 C 27.322505 41 28 40.3225 28 39.5 C 28 39.344379 27.968728 39.19632 27.923828 39.054688 L 31 36.759766 L 30.990234 29 L 33.025391 29 L 33 37.734375 L 36.013672 40.234375 L 36.013672 42.087891 C 35.427747 42.292569 35 42.848204 35 43.5 C 35 44.3225 35.677495 45 36.5 45 C 37.322505 45 38 44.3225 38 43.5 C 38 42.858123 37.58581 42.307879 37.013672 42.095703 L 37.013672 39.763672 L 34.001953 37.265625 L 34.025391 29 L 37 29 L 37 34.160156 L 42 37.660156 L 42 40.091797 C 41.420972 40.30028 41 40.853163 41 41.5 C 41 42.3225 41.677495 43 42.5 43 C 43.322505 43 44 42.3225 44 41.5 C 44 40.853163 43.579028 40.30028 43 40.091797 L 43 37.140625 L 38 33.640625 L 38 29 L 40 29 L 40 32.25 L 44.042969 35.160156 C 44.017066 35.269791 44 35.382959 44 35.5 C 44 36.3225 44.677495 37 45.5 37 C 46.322505 37 47 36.3225 47 35.5 C 47 34.6775 46.322505 34 45.5 34 C 45.161892 34 44.851722 34.118569 44.599609 34.310547 L 41.041016 31.75 L 41.041016 29 L 48 29 L 48 47 L 16 47 L 16 29 z M 18.5 35 C 18.782065 35 19 35.218 19 35.5 C 19 35.7821 18.782065 36 18.5 36 C 18.217935 36 18 35.7821 18 35.5 C 18 35.218 18.217935 35 18.5 35 z M 45.5 35 C 45.782065 35 46 35.218 46 35.5 C 46 35.7821 45.782065 36 45.5 36 C 45.217935 36 45 35.7821 45 35.5 C 45 35.218 45.217935 35 45.5 35 z M 26.5 39 C 26.782065 39 27 39.218 27 39.5 C 27 39.7821 26.782065 40 26.5 40 C 26.217935 40 26 39.7821 26 39.5 C 26 39.218 26.217935 39 26.5 39 z M 21.5 41 C 21.782065 41 22 41.218 22 41.5 C 22 41.7821 21.782065 42 21.5 42 C 21.217935 42 21 41.7821 21 41.5 C 21 41.218 21.217935 41 21.5 41 z M 42.5 41 C 42.782065 41 43 41.218 43 41.5 C 43 41.7821 42.782065 42 42.5 42 C 42.217935 42 42 41.7821 42 41.5 C 42 41.218 42.217935 41 42.5 41 z M 36.5 43 C 36.782065 43 37 43.218 37 43.5 C 37 43.7821 36.782065 44 36.5 44 C 36.217935 44 36 43.7821 36 43.5 C 36 43.218 36.217935 43 36.5 43 z M 9 51 L 26.050781 51 C 26.050781 51 26.050781 51.001953 26.050781 51.001953 C 26.284672 52.139098 27.295693 53 28.5 53 L 36.5 53 C 37.704307 53 38.715328 52.137145 38.949219 51 L 55 51 L 55 52.5 C 55 53.8937 53.893649 55 52.5 55 L 11.5 55 C 10.106351 55 9 53.8937 9 52.5 L 9 51 z M 27.205078 51 L 37.794922 51 C 37.578052 51.5581 37.142689 52 36.5 52 L 28.5 52 C 27.857311 52 27.421948 51.5581 27.205078 51 z " color="#000" font-family="sans-serif" font-weight="400" overflow="visible" style="line-height:normal;text-indent:0;text-align:start;text-decoration-line:none;text-decoration-style:solid;text-decoration-color:#000;text-transform:none;block-progression:tb;isolation:auto;mix-blend-mode:normal"/></svg>