<svg xmlns="http://www.w3.org/2000/svg" enable-background="new 0 0 64 64" viewBox="0 0 64 64"><polygon fill="#fcda35" points="54.5 9.5 54.5 62.5 16.5 62.5 16.5 54.5 47.5 54.5 47.5 9.5"/><path fill="#faca00" d="M54.5,44.13V62.5h-38v-8h31V41.08C49.74,42.26,52.08,43.28,54.5,44.13z"/><polygon fill="#fff" points="47.5 54.5 9.5 54.5 9.5 9.5 17.5 1.5 47.5 1.5"/><path fill="#efefef" d="M47.5,47.77v6.73h-38v-45l4.77-4.77c0.64,6.4,2.46,12.46,5.23,17.96c1.17,2.31,2.51,4.53,4,6.63
				c0.66,0.93,1.35,1.84,2.08,2.72c1.28,1.56,2.65,3.05,4.09,4.46C34.72,41.4,40.78,45.26,47.5,47.77z"/><polygon fill="#ff56cb" points="9.5 9.5 17.5 9.5 17.5 1.5"/><path fill="#d949ac" d="M17.5,4.15V9.5h-5.35C14.05,7.84,15.84,6.05,17.5,4.15z"/><path fill="#06afff" d="M35.5 24.5c-1.105 0-2 .895-2 2v6h-6v-2l-5 4 5 4v-2h8c1.105 0 2-.895 2-2v-8C37.5 25.395 36.605 24.5 35.5 24.5zM21.5 31.5c1.105 0 2-.895 2-2v-6h6v2l5-4-5-4v2h-8c-1.105 0-2 .895-2 2v8C19.5 30.605 20.395 31.5 21.5 31.5z"/><path fill="#0688ff" d="M29.67 36.5H27.5v2l-5-4 3.08-2.46C26.86 33.6 28.23 35.09 29.67 36.5zM23.5 29.32v.18c0 1.1-.9 2-2 2-1.1 0-2-.9-2-2v-6.81C20.67 25 22.01 27.22 23.5 29.32z"/><path fill="#2828b8" d="M47.5,55h-38C9.224,55,9,54.776,9,54.5v-45c0-0.133,0.053-0.26,0.146-0.354l8-8
					C17.24,1.053,17.367,1,17.5,1h30C47.776,1,48,1.224,48,1.5v34c0,0.276-0.224,0.5-0.5,0.5S47,35.776,47,35.5V2H17.707L10,9.707
					V54h37v-5.5c0-0.276,0.224-0.5,0.5-0.5s0.5,0.224,0.5,0.5v6C48,54.776,47.776,55,47.5,55z"/><path fill="#2828b8" d="M54.5 63h-38c-.276 0-.5-.224-.5-.5v-8c0-.276.224-.5.5-.5s.5.224.5.5V62h37V10h-6.5C47.224 10 47 9.776 47 9.5S47.224 9 47.5 9h7C54.776 9 55 9.224 55 9.5v53C55 62.776 54.776 63 54.5 63zM17.5 10h-8C9.224 10 9 9.776 9 9.5S9.224 9 9.5 9H17V1.5C17 1.224 17.224 1 17.5 1S18 1.224 18 1.5v8C18 9.776 17.776 10 17.5 10z"/><path fill="#2828b8" d="M27.5 39c-.111 0-.222-.037-.313-.109l-5-4C22.069 34.796 22 34.652 22 34.5s.069-.296.187-.391l5-4c.15-.12.355-.143.529-.06C27.89 30.133 28 30.308 28 30.5V32h5v-5.5c0-1.379 1.121-2.5 2.5-2.5s2.5 1.121 2.5 2.5v8c0 1.379-1.121 2.5-2.5 2.5H28v1.5c0 .192-.11.367-.283.45C27.648 38.983 27.574 39 27.5 39zM23.3 34.5l3.7 2.96V36.5c0-.276.224-.5.5-.5h8c.827 0 1.5-.673 1.5-1.5v-8c0-.827-.673-1.5-1.5-1.5S34 25.673 34 26.5v6c0 .276-.224.5-.5.5h-6c-.276 0-.5-.224-.5-.5v-.96L23.3 34.5zM21.5 32c-1.378 0-2.5-1.121-2.5-2.5v-8c0-1.379 1.122-2.5 2.5-2.5H29v-1.5c0-.192.11-.367.283-.45.172-.083.379-.061.529.06l5 4C34.931 21.204 35 21.348 35 21.5s-.069.296-.188.391l-5 4c-.15.119-.355.143-.529.06C29.11 25.867 29 25.692 29 25.5V24h-5v5.5C24 30.879 22.878 32 21.5 32zM21.5 20c-.827 0-1.5.673-1.5 1.5v8c0 .827.673 1.5 1.5 1.5s1.5-.673 1.5-1.5v-6c0-.276.224-.5.5-.5h6c.276 0 .5.224.5.5v.96l3.699-2.96L30 18.54v.96c0 .276-.224.5-.5.5H21.5zM47.5 44c-.276 0-.5-.224-.5-.5v-5c0-.276.224-.5.5-.5s.5.224.5.5v5C48 43.776 47.776 44 47.5 44z"/></svg>