<svg xmlns="http://www.w3.org/2000/svg" viewBox="0 0 64 64"><g data-name="Layer 20"><rect width="60" height="44" x="2" y="2" fill="#666"/><rect width="52" height="36" x="6" y="6" fill="#7fcdee"/><rect width="49" height="36" x="6" y="6" fill="#a9ddf3"/><polygon fill="#8cc63f" points="39 18 46 11 48 20 39 18"/><path fill="#8cc63f" d="M41,16.06A12,12,0,0,0,20,24H16A16,16,0,0,1,43.62,13"/><polygon fill="#8cc63f" points="25 30 18 37 16 28 25 30"/><path fill="#8cc63f" d="M23,31.94A12,12,0,0,0,44,24h4A16,16,0,0,1,20.38,35"/><polygon fill="#999" points="40 56 24 56 26 46 38 46 40 56"/><polygon fill="#b3b3b3" points="26 46 24 56 37 56 35 46 26 46"/><path fill="#666" d="M18,56H46a2,2,0,0,1,2,2v4a0,0,0,0,1,0,0H16a0,0,0,0,1,0,0V58A2,2,0,0,1,18,56Z"/><path fill="gray" d="M43,56H18a2,2,0,0,0-2,2v4H45V58A2,2,0,0,0,43,56Z"/><polygon fill="none" stroke="#000" stroke-linejoin="round" stroke-width="2" points="39 18 46 11 48 20 39 18"/><rect width="60" height="44" x="2" y="2" fill="none" stroke="#000" stroke-linejoin="round" stroke-width="2"/><polygon fill="none" stroke="#000" stroke-linejoin="round" stroke-width="2" points="40 56 24 56 26 46 38 46 40 56"/><path fill="none" stroke="#000" stroke-linejoin="round" stroke-width="2" d="M18 56H46a2 2 0 0 1 2 2v4a0 0 0 0 1 0 0H16a0 0 0 0 1 0 0V58A2 2 0 0 1 18 56zM41 16.06A12 12 0 0 0 20 24H16A16 16 0 0 1 43.62 13"/><polygon fill="none" stroke="#000" stroke-linejoin="round" stroke-width="2" points="25 30 18 37 16 28 25 30"/><path fill="none" stroke="#000" stroke-linejoin="round" stroke-width="2" d="M23,31.94A12,12,0,0,0,44,24h4A16,16,0,0,1,20.38,35"/><polyline fill="none" stroke="#000" stroke-linejoin="round" stroke-width="2" points="43 6 58 6 58 42 43 42"/><polyline fill="none" stroke="#000" stroke-linejoin="round" stroke-width="2" points="21 42 6 42 6 6 21 6"/></g></svg>