<svg xmlns="http://www.w3.org/2000/svg" data-name="Layer 1" viewBox="0 0 168 168"><circle cx="2" cy="150" r="2" fill="#2d4356"/><path fill="#2d4356" d="M11 148H8a2 2 0 0 0 0 4h3a2 2 0 0 0 0-4zM160 148h-3a2 2 0 0 0 0 4h3a2 2 0 0 0 0-4z"/><circle cx="166" cy="150" r="2" fill="#2d4356"/><path fill="#0bceb2" d="M118.15387 156h-8.30774a2.00641 2.00641 0 0 0 0 4h8.30774a2.00641 2.00641 0 0 0 0-4zM58.15387 156H49.84613a2.00641 2.00641 0 0 0 0 4h8.30774a2.00641 2.00641 0 0 0 0-4zM104 156H64a2 2 0 0 0 0 4H79.94v2H72a2 2 0 0 0 0 4H97a2 2 0 0 0 0-4H88.06v-2H104a2 2 0 0 0 0-4z"/><path fill="#2d4356" d="M36.67267,59.54272a21.47085,21.47085,0,0,0,1.411,3.40588,4.00005,4.00005,0,0,0,.32764,5.28595l3.52081,3.52075a4.00007,4.00007,0,0,0,5.28589.3277A21.47123,21.47123,0,0,0,50.624,73.494,4.00056,4.00056,0,0,0,54.59375,77h4.97919a4.00051,4.00051,0,0,0,3.96979-3.506A21.46317,21.46317,0,0,0,66.94867,72.083a4.00007,4.00007,0,0,0,5.28589-.3277l3.52081-3.52075a4.00005,4.00005,0,0,0,.32764-5.28595,21.47085,21.47085,0,0,0,1.411-3.40588A4.00057,4.00057,0,0,0,81,55.57288V50.59375a4.00057,4.00057,0,0,0-3.506-3.96985,21.4661,21.4661,0,0,0-1.41083-3.40552,4.00059,4.00059,0,0,0-.32782-5.28625l-3.52075-3.52087a4.00013,4.00013,0,0,0-5.286-.32764,21.46251,21.46251,0,0,0-3.40588-1.41095,4.00056,4.00056,0,0,0-3.96979-3.506H54.59375a4.00056,4.00056,0,0,0-3.96979,3.506,21.46822,21.46822,0,0,0-3.40588,1.41095,4.00013,4.00013,0,0,0-5.286.32764l-3.52075,3.52087a4.00059,4.00059,0,0,0-.32782,5.28625,21.4661,21.4661,0,0,0-1.41083,3.40552,4.00057,4.00057,0,0,0-3.506,3.96985v4.97913A4.00057,4.00057,0,0,0,36.67267,59.54272Zm.494-8.949h2.68756a17.30989,17.30989,0,0,1,3.28589-7.93286L41.23975,40.7605l3.52081-3.52081,1.90039,1.90039a17.31051,17.31051,0,0,1,7.9328-3.28583V33.16663h4.97919v2.68762a17.31051,17.31051,0,0,1,7.9328,3.28583l1.90039-1.90039,3.52081,3.52081-1.90039,1.90039a17.30989,17.30989,0,0,1,3.28589,7.93286H77v4.97913H74.31244a17.30962,17.30962,0,0,1-3.28589,7.93286l1.90039,1.90039-3.52081,3.52075L67.5058,67.02655a17.31074,17.31074,0,0,1-7.93286,3.28583V73H54.59375V70.31238a17.31074,17.31074,0,0,1-7.93286-3.28583l-1.90033,1.90033-3.52081-3.52075,1.90039-1.90039a17.30962,17.30962,0,0,1-3.28589-7.93286H37.16669Z"/><path fill="#0bceb2" d="M57,65A12,12,0,1,0,45,53,12.01359,12.01359,0,0,0,57,65Zm0-20a8,8,0,1,1-8,8A8,8,0,0,1,57,45Z"/><path fill="#2d4356" d="M85 53H96.10242c-.02112-.2381-.035-.47778-.035-.71973a7.96735 7.96735 0 0 1 .07086-1.05872A8.09 8.09 0 0 1 94.1687 49H84.82056A7.93744 7.93744 0 0 1 85 50.59375zM99.8714 48.71356a17.16906 17.16906 0 0 0 .68445 1.652 4.00018 4.00018 0 0 0 .68335 4.74359l2.65161 2.65161a4 4 0 0 0 4.74359.68329 17.16951 17.16951 0 0 0 1.652.68451A4.002 4.002 0 0 0 114.125 62h3.75a4.00186 4.00186 0 0 0 3.83856-2.8714 17.17014 17.17014 0 0 0 1.6521-.68445 4.00009 4.00009 0 0 0 4.74353-.68335l2.65167-2.65161a4 4 0 0 0 .68329-4.74359 17.15353 17.15353 0 0 0 .68445-1.652A4.002 4.002 0 0 0 135 44.875v-3.75a4.00186 4.00186 0 0 0-2.8714-3.83856 17.15461 17.15461 0 0 0-.68445-1.6521 3.99992 3.99992 0 0 0-.68329-4.74353l-2.65161-2.65167a4.0001 4.0001 0 0 0-4.74365-.68329 17.14709 17.14709 0 0 0-1.652-.68445A4.00186 4.00186 0 0 0 117.875 24h-3.75a4.00192 4.00192 0 0 0-3.83856 2.8714 17.168 17.168 0 0 0-1.652.68445 4.0001 4.0001 0 0 0-4.74365.68329l-2.65167 2.65167a4.00018 4.00018 0 0 0-.68329 4.74353 17.17014 17.17014 0 0 0-.68445 1.6521A4.00186 4.00186 0 0 0 97 41.125v3.75A4.002 4.002 0 0 0 99.8714 48.71356zM101 41.125h2.02411a13.0373 13.0373 0 0 1 2.47473-5.97455l-1.43121-1.43121 2.65161-2.65167 1.43127 1.43127a13.037 13.037 0 0 1 5.97449-2.47473V28h3.75v2.02411a13.03719 13.03719 0 0 1 5.97455 2.47473l1.43121-1.43127 2.65167 2.65167-1.43127 1.43121a13.03664 13.03664 0 0 1 2.47473 5.97455H131v3.75h-2.02411a13.03719 13.03719 0 0 1-2.47473 5.97455l1.43127 1.43121-2.65167 2.65161-1.43121-1.43121a13.03757 13.03757 0 0 1-5.97455 2.47473V58h-3.75V55.97589a13.03812 13.03812 0 0 1-5.97455-2.47473l-1.43121 1.43121-2.65161-2.65161 1.43121-1.43121a13.03785 13.03785 0 0 1-2.47473-5.97455H101z"/><path fill="#0bceb2" d="M116,52a9,9,0,1,0-9-9A9.01019,9.01019,0,0,0,116,52Zm0-14a5,5,0,1,1-5,5A5,5,0,0,1,116,38Z"/><path fill="#2d4356" d="M55,98a2.0001,2.0001,0,0,0-2,2v10a2.0001,2.0001,0,0,0,2,2h58a2.0001,2.0001,0,0,0,2-2v-9.98535a2,2,0,0,0-4,0V108H57v-8A2.0001,2.0001,0,0,0,55,98Z"/><path fill="#0bceb2" d="M94 85.72949H92.59216V74a4 4 0 0 0-4-4H79.40784a4 4 0 0 0-4 4V85.72949H74a4 4 0 0 0-2.86523 6.79108l10.00452 10.27051A4 4 0 0 0 84.00458 104h.00085a4.00007 4.00007 0 0 0 2.86566-1.21021l9.93744-10.21088A3.99914 3.99914 0 0 0 94.005 85.72949zM84.00452 100L74 89.72949h5.40784V74h9.18433V89.72949H94zM39 122a6.0068 6.0068 0 0 0 6 6h78a6 6 0 0 0 0-12H45A6.0068 6.0068 0 0 0 39 122zm43.8335-2H123a2 2 0 0 1 0 4H82.8335zm-10 0h6v4h-6zm-10 0h6v4h-6zm-10 0h6v4h-6zm-4 4H45a2 2 0 0 1 0-4h3.8335z"/><path fill="#2d4356" d="M150.72131 148H101v-4h39a8.009 8.009 0 0 0 8-8V57a8.009 8.009 0 0 0-8-8h-2.1687a8.09 8.09 0 0 1-1.96954 2.22156 7.96736 7.96736 0 0 1 .07086 1.05872c0 .24194-.01392.48163-.035.71973H140a4 4 0 0 1 4 4v75H24V57a4 4 0 0 1 4-4h1.1665V50.59375A7.93691 7.93691 0 0 1 29.34589 49H28a8.009 8.009 0 0 0-8 8v79a8.00909 8.00909 0 0 0 8 8H67v4H17.27869a2.017 2.017 0 1 0 0 4H150.72131a2.017 2.017 0 1 0 0-4zM28 140a4 4 0 0 1-4-4H144a4 4 0 0 1-4 4zm43 8v-4H97v4zM68.30471 8a3 3 0 1 0-3-3A3.00344 3.00344 0 0 0 68.30471 8zm0-4.5a1.5 1.5 0 1 1-1.5 1.5A1.50148 1.50148 0 0 1 68.30471 3.5zM162 53a2 2 0 1 0 2 2A2.00229 2.00229 0 0 0 162 53zm0 3a1 1 0 1 1 1-1A1.001 1.001 0 0 1 162 56zM88.4794 20.11461a2 2 0 1 0 2 2A2.00229 2.00229 0 0 0 88.4794 20.11461zm0 3a1 1 0 1 1 1-1A1.001 1.001 0 0 1 88.4794 23.11461zM125 2.5a2 2 0 1 0 2 2A2.00229 2.00229 0 0 0 125 2.5zm0 3a1 1 0 1 1 1-1A1.001 1.001 0 0 1 125 5.5zM28 28a2 2 0 1 0-2 2A2.00229 2.00229 0 0 0 28 28zm-3 0a1 1 0 1 1 1 1A1.001 1.001 0 0 1 25 28z"/><polygon fill="#0bceb2" points="10.888 51.749 12.375 49.794 11.436 49.262 10.481 51.452 10.45 51.452 9.48 49.277 8.525 49.825 9.996 51.734 9.996 51.765 7.695 51.468 7.695 52.532 10.011 52.235 10.011 52.266 8.525 54.174 9.416 54.738 10.434 52.532 10.465 52.532 11.404 54.722 12.39 54.159 10.888 52.281 10.888 52.25 13.25 52.532 13.25 51.468 10.888 51.781 10.888 51.749"/><polygon fill="#0bceb2" points="7.43 8.153 6.574 9.252 7.087 9.577 7.673 8.306 7.691 8.306 8.232 9.568 8.799 9.243 7.934 8.162 7.934 8.144 9.295 8.306 9.295 7.694 7.934 7.874 7.934 7.856 8.791 6.73 8.25 6.423 7.7 7.684 7.682 7.684 7.124 6.432 6.574 6.747 7.421 7.847 7.421 7.865 6.096 7.694 6.096 8.306 7.43 8.135 7.43 8.153"/><polygon fill="#0bceb2" points="152.581 37.207 152.581 36.164 150.264 36.47 150.264 36.44 151.722 34.522 150.801 34 149.865 36.148 149.834 36.148 148.883 34.015 147.946 34.552 149.389 36.425 149.389 36.455 147.132 36.164 147.132 37.207 149.404 36.916 149.404 36.947 147.946 38.818 148.82 39.371 149.819 37.207 149.849 37.207 150.77 39.356 151.737 38.803 150.264 36.962 150.264 36.931 152.581 37.207"/><polygon fill="#0bceb2" points="163.725 19.586 164.983 17.931 164.188 17.481 163.381 19.334 163.354 19.334 162.534 17.494 161.725 17.958 162.97 19.573 162.97 19.599 161.023 19.348 161.023 20.248 162.983 19.996 162.983 20.023 161.725 21.638 162.48 22.115 163.341 20.248 163.367 20.248 164.161 22.101 164.995 21.625 163.725 20.036 163.725 20.009 165.723 20.248 165.723 19.348 163.725 19.612 163.725 19.586"/></svg>