<?xml version="1.0" standalone="no"?><svg xmlns="http://www.w3.org/2000/svg" viewBox="0 0 1440 320"><path fill="#00aeff" fill-opacity="1" d="M0,64L40,90.7C80,117,160,171,240,202.7C320,235,400,245,480,229.3C560,213,640,171,720,149.3C800,128,880,128,960,144C1040,160,1120,192,1200,202.7C1280,213,1360,203,1400,197.3L1440,192L1440,320L1400,320C1360,320,1280,320,1200,320C1120,320,1040,320,960,320C880,320,800,320,720,320C640,320,560,320,480,320C400,320,320,320,240,320C160,320,80,320,40,320L0,320Z"></path></svg>