<svg xmlns="http://www.w3.org/2000/svg" viewBox="0 0 64 64"><g data-name="Digital Creative"><path fill="#fff9c1" d="M7.32,4A3.31,3.31,0,0,0,4,7.32V56.68A3.31,3.31,0,0,0,7.32,60H56.68A3.31,3.31,0,0,0,60,56.68V7.32A3.31,3.31,0,0,0,56.68,4ZM8,14H56V56H8Z"/><path fill="#fbf4af" d="M52.68,4A3.31,3.31,0,0,1,56,7.32V56.68A3.31,3.31,0,0,1,52.68,60h4A3.31,3.31,0,0,0,60,56.68V7.32A3.31,3.31,0,0,0,56.68,4Z"/><path fill="#f1f4f6" d="M8,14V56H56V14ZM31.33,52.52H17.74a2.61,2.61,0,0,1-2.61-2.61v-10a2.6,2.6,0,0,1,2.58-2.6V19.76A2.26,2.26,0,0,1,20,17.48h15.3a2.26,2.26,0,0,1,2.27,2.28v7.48h9.26a2.06,2.06,0,0,1,2.06,2.06V43.53a2,2,0,0,1-2.06,2H43.46V47.7A2.28,2.28,0,0,1,41.18,50H33.93A2.6,2.6,0,0,1,31.33,52.52Z"/><path fill="#dfeaef" d="M52,14V56h4V14Z"/><path fill="#738b95" d="M22.87,34.24a1.25,1.25,0,0,0-1.26,1.26v1.78H17.74a2.61,2.61,0,0,0-2.61,2.61v10a2.61,2.61,0,0,0,2.61,2.61H31.33a2.61,2.61,0,0,0,2.61-2.61v-10a2.61,2.61,0,0,0-2.61-2.61H27.45V35.5a1.25,1.25,0,0,0-1.25-1.26Z"/><path fill="#f1f4f6" d="M28,44.9a3.49,3.49,0,1,1-3.48-3.48A3.48,3.48,0,0,1,28,44.9Z"/><path fill="#b9e4ef" d="M32.35,27.24a2.06,2.06,0,0,0-2.06,2.06v8h1a2.61,2.61,0,0,1,2.61,2.61v5.69H46.81a2,2,0,0,0,2.06-2V29.3a2.06,2.06,0,0,0-2.06-2.06Z"/><path fill="#a2f4c1" d="M38.55,35a5,5,0,0,0-2.82.57l-3.46,1.86a2.62,2.62,0,0,1,1.67,2.43v5.69H46.81a2,2,0,0,0,2.06-2V40L40.4,35.58A5,5,0,0,0,38.55,35Z"/><path fill="#f1f4f6" d="M20 17.48a2.26 2.26 0 0 0-2.27 2.28V37.29h3.91V35.5a1.25 1.25 0 0 1 1.25-1.26H26.2a1.25 1.25 0 0 1 1.26 1.26v1.78h2.83v-8a2.06 2.06 0 0 1 2.06-2.06h5.2V19.76a2.26 2.26 0 0 0-2.27-2.28zM33.94 45.58v4.33s0 .05 0 .07h7.25a2.28 2.28 0 0 0 2.28-2.28V45.58z"/><path fill="#dfeaef" d="M31.12,17.48a2.26,2.26,0,0,1,2.27,2.28v7.48h4.16V19.76a2.26,2.26,0,0,0-2.27-2.28Zm-2.94,9.76a2,2,0,0,0-2.05,2.06v4.94h.07a1.25,1.25,0,0,1,1.26,1.26v1.78h2.83v-8a2.06,2.06,0,0,1,2.06-2.06Z"/><path fill="#617881" d="M22.87,34.24a1.35,1.35,0,0,0-.35.06,1.24,1.24,0,0,1,.91,1.2v1.78h3.88a2.6,2.6,0,0,1,2.6,2.61v10a2.6,2.6,0,0,1-2.6,2.61h4a2.61,2.61,0,0,0,2.61-2.61v-10a2.61,2.61,0,0,0-2.61-2.61H27.46V35.5a1.25,1.25,0,0,0-1.26-1.26Z"/><path fill="#93d8e4" d="M43.25,27.24a2.06,2.06,0,0,1,2.06,2.06V43.53a2,2,0,0,1-2.06,2h3.56a2,2,0,0,0,2.06-2V29.3a2.06,2.06,0,0,0-2.06-2.06Z"/><path fill="#86f1a7" d="M45.31,38.16v5.37a2,2,0,0,1-2.06,2h3.56a2,2,0,0,0,2.06-2V40Z"/><path fill="#fff9c1" d="M45.34,32.06a1.89,1.89,0,1,1-1.88-1.88A1.88,1.88,0,0,1,45.34,32.06Z"/><path fill="#2e3c69" d="M9.07 8.48a1 1 0 1 0 1 1A1 1 0 0 0 9.07 8.48zM14.05 8.48a1 1 0 1 0 1 1A1 1 0 0 0 14.05 8.48zM19 8.48a1 1 0 1 0 1 1A1 1 0 0 0 19 8.48z"/><path fill="#363e67" d="M56.68,3H7.32A4.33,4.33,0,0,0,3,7.32V56.68A4.33,4.33,0,0,0,7.32,61H56.68A4.33,4.33,0,0,0,61,56.68V7.32A4.33,4.33,0,0,0,56.68,3ZM59,56.68A2.32,2.32,0,0,1,56.68,59H7.32A2.32,2.32,0,0,1,5,56.68V7.32A2.32,2.32,0,0,1,7.32,5H56.68A2.32,2.32,0,0,1,59,7.32Z"/><path fill="#363e67" d="M56 13H8a1 1 0 0 0-1 1V56a1 1 0 0 0 1 1H56a1 1 0 0 0 1-1V14A1 1 0 0 0 56 13zM55 55H9V15H55zM30.74 10.48H52a1 1 0 0 0 0-2H30.74a1 1 0 0 0 0 2z"/><path fill="#363e67" d="M17.74,53.52H31.33A3.57,3.57,0,0,0,34.76,51h6.42a3.28,3.28,0,0,0,3.28-3.28V46.58h2.35a3.06,3.06,0,0,0,3.06-3V29.3a3.06,3.06,0,0,0-3.06-3.06H38.56V19.75a3.28,3.28,0,0,0-3.28-3.27H20a3.28,3.28,0,0,0-3.28,3.27v16.7a3.57,3.57,0,0,0-2.58,3.44v10a3.62,3.62,0,0,0,3.61,3.61ZM42.46,47.7A1.28,1.28,0,0,1,41.18,49H34.94v-2.4h7.52Zm4.35-3.12H34.94V39.89a3.58,3.58,0,0,0-.84-2.28l2.1-1.13a4,4,0,0,1,3.74,0l7.93,4.16v2.9A1.06,1.06,0,0,1,46.81,44.58ZM47.87,29.3v9.07l-7-3.67a6,6,0,0,0-5.61,0l-3.11,1.67a3.77,3.77,0,0,0-.86-.11v-7a1.06,1.06,0,0,1,1.06-1.06H46.81A1.07,1.07,0,0,1,47.87,29.3ZM20,18.48H35.28a1.28,1.28,0,0,1,1.28,1.27v6.49H32.35a3,3,0,0,0-2.67,1.59h-3a1,1,0,0,0,0,2h2.58v6.45h-.83V35.5a2.26,2.26,0,0,0-2.26-2.26H22.87a2.26,2.26,0,0,0-2.26,2.26v.78h-1.9V19.75A1.27,1.27,0,0,1,20,18.48Zm2.62,17.8V35.5a.26.26,0,0,1,.26-.26H26.2a.26.26,0,0,1,.26.26v.78Zm-6.48,3.61a1.62,1.62,0,0,1,1.61-1.61H31.33a1.6,1.6,0,0,1,1.61,1.61v10a1.61,1.61,0,0,1-.47,1.13,1.63,1.63,0,0,1-1.14.47H17.74a1.62,1.62,0,0,1-1.61-1.61Z"/><path fill="#363e67" d="M24.54 49.39a4.49 4.49 0 1 0-4.49-4.49A4.49 4.49 0 0 0 24.54 49.39zm0-7a2.49 2.49 0 1 1-2.49 2.48A2.48 2.48 0 0 1 24.54 42.42zM30.89 46.41a1 1 0 0 0 1-1v-5a1 1 0 0 0-2 0v5A1 1 0 0 0 30.89 46.41zM43.46 34.94a2.88 2.88 0 1 0-2.89-2.88A2.89 2.89 0 0 0 43.46 34.94zm0-3.76a.88.88 0 1 1-.89.88A.88.88 0 0 1 43.46 31.18zM21 22.15h2.32a1 1 0 1 0 0-2H21a1 1 0 1 0 0 2zM21 26h8.41a1 1 0 0 0 0-2H21a1 1 0 0 0 0 2zM21 29.83h2.32a1 1 0 0 0 0-2H21a1 1 0 0 0 0 2zM26.71 22.15h7.48a1 1 0 0 0 0-2H26.71a1 1 0 0 0 0 2zM34.19 24h-1.4a1 1 0 0 0 0 2h1.4a1 1 0 0 0 0-2z"/></g></svg>