<svg xmlns="http://www.w3.org/2000/svg" viewBox="0 0 1010 733.785"><path fill="#FFF" d="M349.28 158.577c-104.189 0-188.66 84.481-188.66 188.73 0 104.208 84.471 188.689 188.66 188.689 104.198 0 188.689-84.48 188.689-188.69 0-104.248-84.492-188.73-188.69-188.73zm0 340.12c-83.576 0-151.33-67.795-151.33-151.39 0-83.637 67.754-151.401 151.33-151.401 83.616 0 151.36 67.764 151.36 151.4 0 83.596-67.744 151.39-151.36 151.39z" opacity=".3"/><path fill="#FF9554" d="M685.293 397.911V297.688h-88.245c-6.542-33.001-19.505-63.698-37.581-90.741l62.4-62.38-70.894-70.875-62.602 62.672a251.12 251.12 0 0 0-90.45-37.027v-89.03H297.669V99.86a251.14 251.14 0 0 0-89.252 37.631l-63.82-63.799-70.884 70.875 64.272 64.272c-17.432 26.55-30.063 56.562-36.484 88.85H10.306V397.91h91.376c6.522 32.146 19.193 62.057 36.695 88.426l-64.664 64.635 70.884 70.935L209 557.494c26.47 17.673 56.462 30.556 88.668 37.178v90.642h100.253v-90.078c32.64-6.32 62.964-19.022 89.806-36.595l63.246 63.266 70.894-70.935-62.803-62.783a251.831 251.831 0 0 0 37.883-90.278h88.346zM349.279 498.697c-83.575 0-151.33-67.795-151.33-151.39 0-83.637 67.755-151.401 151.33-151.401 83.616 0 151.36 67.764 151.36 151.4 0 83.596-67.743 151.39-151.36 151.39z"/><path fill="#4D4D4D" d="M397.92 695.62H297.669a10.3 10.3 0 0 1-10.306-10.306v-82.379c-27.174-6.512-52.99-17.34-76.953-32.267l-58.525 58.526a10.297 10.297 0 0 1-7.287 3.018 10.296 10.296 0 0 1-7.286-3.018l-70.885-70.935a10.304 10.304 0 0 1 0-14.574l58.797-58.776C110.5 461.117 99.82 435.38 93.4 408.217H10.306A10.3 10.3 0 0 1 0 397.91V297.688a10.3 10.3 0 0 1 10.306-10.306h82.882c6.33-27.214 16.958-53.07 31.673-77.094l-58.435-58.435a10.3 10.3 0 0 1 0-14.573l70.884-70.874a10.302 10.302 0 0 1 14.574 0l57.91 57.89c24.015-15.076 50.032-26.046 77.568-32.689v-81.3A10.3 10.3 0 0 1 297.668 0h100.253a10.3 10.3 0 0 1 10.306 10.306v80.677c27.919 6.391 54.318 17.2 78.705 32.237l56.753-56.814c3.845-3.855 10.71-3.875 14.574 0l70.894 70.874a10.298 10.298 0 0 1 0 14.573l-56.513 56.503c15.249 24.467 26.229 50.987 32.731 79.026h79.922a10.3 10.3 0 0 1 10.306 10.306v100.223a10.3 10.3 0 0 1-10.306 10.306H605.22c-6.633 27.91-17.694 54.279-32.962 78.594l56.894 56.874a10.302 10.302 0 0 1 0 14.574l-70.894 70.935c-3.865 3.864-10.708 3.864-14.574 0l-57.418-57.439c-24.356 14.896-50.544 25.575-78.04 31.844v81.715a10.3 10.3 0 0 1-10.306 10.306zm-89.945-20.613h79.64v-79.771c0-4.932 3.503-9.179 8.344-10.115 30.636-5.938 59.612-17.744 86.122-35.105 4.066-2.667 9.47-2.114 12.933 1.339l55.959 55.978 56.32-56.36-55.516-55.497a10.305 10.305 0 0 1-1.258-13.043c17.745-26.36 29.973-55.486 36.333-86.585a10.3 10.3 0 0 1 10.095-8.243h78.04v-79.61h-77.94c-4.921 0-9.149-3.473-10.104-8.304-6.19-31.22-18.318-60.498-36.04-87.018a10.29 10.29 0 0 1 1.277-13.013l55.113-55.093-56.31-56.3-55.325 55.384c-3.452 3.482-8.877 4.006-12.973 1.308-26.45-17.482-55.627-29.428-86.736-35.507a10.305 10.305 0 0 1-8.334-10.115V20.612h-79.64V99.86a10.32 10.32 0 0 1-8.213 10.095c-30.727 6.38-59.522 18.519-85.589 36.081-4.076 2.778-9.541 2.245-13.044-1.258l-56.532-56.512-56.31 56.3 56.984 56.986a10.313 10.313 0 0 1 1.33 12.943c-17.181 26.168-28.947 54.832-34.996 85.206a10.295 10.295 0 0 1-10.104 8.294H20.612v79.61h81.07c4.902 0 9.129 3.452 10.105 8.253 6.16 30.364 17.995 58.888 35.175 84.783a10.29 10.29 0 0 1-1.298 12.984l-57.378 57.347 56.311 56.362 57.116-57.127c3.483-3.472 8.908-3.996 13.014-1.288 26.097 17.432 54.7 29.428 85.015 35.659a10.31 10.31 0 0 1 8.233 10.094v80.335zm41.304-166.004c-89.131 0-161.636-72.535-161.636-161.696 0-89.162 72.505-161.707 161.636-161.707 89.142 0 161.667 72.545 161.667 161.707 0 89.161-72.525 161.696-161.667 161.696zm0-302.791c-77.758 0-141.024 63.296-141.024 141.095 0 77.798 63.266 141.084 141.024 141.084 77.78 0 141.054-63.286 141.054-141.084 0-77.8-63.275-141.095-141.054-141.095z"/><path fill="#5FD4AF" d="M457.996 347.307c0 60.004-48.661 108.716-108.717 108.716-60.025 0-108.666-48.712-108.666-108.716 0-60.056 48.641-108.738 108.666-108.738 60.055 0 108.717 48.683 108.717 108.738z"/><path fill="#4D4D4D" d="M349.28 466.33c-65.601 0-118.973-53.393-118.973-119.023 0-65.641 53.372-119.044 118.972-119.044 65.631 0 119.023 53.403 119.023 119.044 0 65.63-53.392 119.023-119.023 119.023zm0-217.454c-54.238 0-98.361 44.152-98.361 98.43 0 54.268 44.122 98.411 98.36 98.411 54.268 0 98.411-44.143 98.411-98.41 0-54.279-44.143-98.432-98.41-98.432z"/><g><path fill="#5FD4AF" d="M956.25 527.522l43.44-16.144-18.298-49.295-43.62 16.163c-8.938-14.432-20.713-27.194-34.985-37.46l19.465-42.452-47.785-21.931-19.647 42.704a130.745 130.745 0 0 0-50.805-1.59l-16.425-44.425-49.337 18.277 16.606 44.767a130.846 130.846 0 0 0-36.836 34.381l-43.478-20.009-21.982 47.847 43.56 19.928c-3.885 16.847-4.368 33.816-1.832 50.261l-44.988 16.708 18.277 49.276 44.827-16.567a132.182 132.182 0 0 0 34.139 37.159l-19.827 43.217 47.826 21.88 19.707-42.935c16.988 4.126 34.2 4.71 50.806 2.214l16.304 43.982 49.357-18.277-16.184-43.66c14.533-8.897 27.436-20.592 37.742-34.803l42.21 19.324 21.9-47.767-42.029-19.323c4.086-17.17 4.59-34.623 1.892-51.45zm-71.66 48.048c-15.035 32.73-53.723 47.061-86.453 32.105-32.73-15.056-47.082-53.785-32.066-86.433 15.036-32.73 53.725-47.102 86.454-32.086 32.69 15.016 47.063 53.705 32.066 86.414z"/><path fill="#4D4D4D" d="M861.362 733.785c-4.186 0-8.122-2.567-9.662-6.724l-13.486-36.363c-12.773 1.138-25.554.614-38.025-1.64l-16.273 35.457c-2.375 5.162-8.475 7.457-13.658 5.073l-47.826-21.881a10.338 10.338 0 0 1-5.375-5.778 10.31 10.31 0 0 1 .293-7.89l16.445-35.83a141.684 141.684 0 0 1-25.504-27.737L671.152 644.2c-5.313 1.972-11.261-.755-13.234-6.089l-18.277-49.275c-1.983-5.335.745-11.263 6.079-13.247l37.339-13.868a142.787 142.787 0 0 1 1.359-37.46l-36.143-16.536a10.322 10.322 0 0 1-5.373-5.787 10.288 10.288 0 0 1 .291-7.88l21.98-47.848a10.327 10.327 0 0 1 5.799-5.364 10.154 10.154 0 0 1 7.88.302l36.02 16.576a139.614 139.614 0 0 1 27.487-25.644l-13.768-37.128a10.291 10.291 0 0 1 .292-7.88 10.337 10.337 0 0 1 5.787-5.365l49.336-18.277a10.183 10.183 0 0 1 7.89.302 10.256 10.256 0 0 1 5.355 5.787l13.567 36.685a140.367 140.367 0 0 1 38.034 1.208l16.253-35.317c2.366-5.173 8.485-7.448 13.659-5.062l47.786 21.93c5.173 2.376 7.438 8.495 5.073 13.668l-16.043 34.974a140.286 140.286 0 0 1 26.278 28.14l35.95-13.325c5.305-2.012 11.273.755 13.246 6.08l18.298 49.295c1.982 5.334-.736 11.263-6.07 13.245l-35.76 13.286a140.883 140.883 0 0 1-1.419 38.708l34.592 15.901c5.163 2.375 7.428 8.484 5.063 13.658l-21.9 47.766c-2.356 5.164-8.455 7.458-13.659 5.072l-34.772-15.922c-8.183 9.965-17.683 18.721-28.372 26.158l13.326 35.95a10.285 10.285 0 0 1-.293 7.881 10.331 10.331 0 0 1-5.787 5.365l-49.356 18.277a10.2 10.2 0 0 1-3.583.645zm-16.294-64.595c4.247 0 8.142 2.638 9.652 6.724l12.721 34.319 30.033-11.121-12.601-33.987c-1.71-4.62.08-9.803 4.277-12.37 13.758-8.424 25.463-19.213 34.784-32.066a10.312 10.312 0 0 1 12.63-3.321l32.851 15.036 13.316-29.046-32.68-15.026a10.304 10.304 0 0 1-5.717-11.746c3.703-15.569 4.287-31.532 1.741-47.434a10.317 10.317 0 0 1 6.582-11.292l33.786-12.55-11.13-29.982-33.957 12.58a10.34 10.34 0 0 1-12.35-4.237c-8.395-13.557-19.233-25.171-32.236-34.521a10.312 10.312 0 0 1-3.352-12.662l15.177-33.082-29.066-13.345-15.35 33.354c-2.042 4.428-6.904 6.843-11.673 5.737a120.4 120.4 0 0 0-46.81-1.47c-4.761.926-9.622-1.942-11.343-6.593L781.5 386.337l-30.002 11.11 13.024 35.106a10.311 10.311 0 0 1-4.207 12.33 119.933 119.933 0 0 0-33.938 31.672c-2.889 3.995-8.203 5.384-12.661 3.322l-34.109-15.691-13.366 29.087 34.17 15.64a10.304 10.304 0 0 1 5.756 11.684c-3.513 15.248-4.086 30.848-1.69 46.377a10.314 10.314 0 0 1-6.592 11.233l-35.338 13.125 11.111 29.96 35.176-13.002c4.6-1.671 9.783.08 12.35 4.277a121.567 121.567 0 0 0 31.482 34.26 10.314 10.314 0 0 1 3.25 12.59l-15.53 33.837 29.087 13.306 15.409-33.576c2.043-4.488 6.934-6.943 11.806-5.717 15.197 3.694 31.16 4.398 46.84 2.033a11.36 11.36 0 0 1 1.54-.11zm-19.828-45.28c-10.869 0-21.428-2.315-31.39-6.864-37.864-17.421-54.52-62.32-37.14-100.112 12.29-26.75 39.243-44.032 68.682-44.032 10.89 0 21.467 2.314 31.431 6.884 37.812 17.372 54.469 62.27 37.138 100.08-12.29 26.753-39.262 44.044-68.72 44.044zm.152-130.397c-21.408 0-41.013 12.572-49.95 32.026-12.641 27.466-.524 60.115 27.002 72.777 26.853 12.258 60.548-.423 72.777-27.043 12.601-27.486.494-60.126-26.993-72.747-7.257-3.331-14.936-5.013-22.836-5.013z"/></g></svg>