<svg xmlns="http://www.w3.org/2000/svg" data-name="Layer 1" viewBox="0 0 512 512"><rect width="30" height="74" x="474.5" y="145.5" fill="#bcd44c" rx="6"/><path fill="#aece44" d="M498.5,145.5h-15a6,6,0,0,1,6,6v62a6,6,0,0,1-6,6h15a6,6,0,0,0,6-6v-62A6,6,0,0,0,498.5,145.5Z"/><rect width="30" height="74" x="7.5" y="145.5" fill="#bcd44c" rx="6" transform="rotate(180 22.5 182.5)"/><path fill="#aece44" d="M31.5,145.5h-15a6,6,0,0,1,6,6v62a6,6,0,0,1-6,6h15a6,6,0,0,0,6-6v-62A6,6,0,0,0,31.5,145.5Z"/><rect width="368" height="429" x="72" y="7.5" fill="#bcd44c" rx="30"/><path fill="#aece44" d="M410,7.5H365a30,30,0,0,1,30,30v369a30,30,0,0,1-30,30h45a30,30,0,0,0,30-30V37.5A30,30,0,0,0,410,7.5Z"/><rect width="175" height="368" x="168.5" y="-11" fill="#83c9ee" transform="rotate(90 256 173)"/><rect width="45" height="175" x="395" y="85.5" fill="#52bbe9"/><path fill="#a8d9f5" d="M263.5,85.5v175a7.5,7.5,0,0,1-15,0V85.5Z"/><path fill="#aece44" d="M410,320.5H102a30,30,0,0,1-30-30v-30H440v30A30,30,0,0,1,410,320.5Z"/><circle cx="382" cy="378.5" r="28" fill="#fddd5a"/><path fill="#fed030" d="M382,350.5a28.00534,28.00534,0,0,0-7.5,1.02417,27.99867,27.99867,0,0,1,0,53.95166A27.99956,27.99956,0,1,0,382,350.5Z"/><circle cx="130" cy="378.5" r="28" fill="#fddd5a"/><path fill="#fed030" d="M130,350.5a28.00534,28.00534,0,0,0-7.5,1.02417,27.99867,27.99867,0,0,1,0,53.95166A27.99956,27.99956,0,1,0,130,350.5Z"/><path fill="#787681" d="M103,436.5h66a0,0,0,0,1,0,0v53a15,15,0,0,1-15,15H118a15,15,0,0,1-15-15v-53A0,0,0,0,1,103,436.5Z"/><path fill="#57565c" d="M139,436.5v53a15.00008,15.00008,0,0,1-15,15h30a15.00008,15.00008,0,0,0,15-15v-53Z"/><path fill="#787681" d="M343,436.5h66a0,0,0,0,1,0,0v53a15,15,0,0,1-15,15H358a15,15,0,0,1-15-15v-53A0,0,0,0,1,343,436.5Z"/><path fill="#57565c" d="M379,436.5v53a15.00008,15.00008,0,0,1-15,15h30a15.00008,15.00008,0,0,0,15-15v-53Z"/><path fill="#787681" d="M504.5,512H7.5a7.5,7.5,0,0,1,0-15h497a7.5,7.5,0,0,1,0,15Z"/><rect width="136" height="56" x="188" y="350.5" fill="#fff" rx="15"/><path fill="#e1e1e3" d="M309,350.5H264a15,15,0,0,1,15,15v26a15.00008,15.00008,0,0,1-15,15h45a15.00008,15.00008,0,0,0,15-15v-26A15,15,0,0,0,309,350.5Z"/><path fill="#3c3b41" d="M395,39.00019a7.5,7.5,0,1,0,7.5,7.5A7.5,7.5,0,0,0,395,39.00019Zm85.5,99a13.51508,13.51508,0,0,0-13.5,13.5v62a13.51508,13.51508,0,0,0,13.5,13.5h18a13.51507,13.51507,0,0,0,13.5-13.5v-62a13.51507,13.51507,0,0,0-13.5-13.5H497v-15.5a14.51669,14.51669,0,0,0-14.5-14.5h-35v-70.5a37.54226,37.54226,0,0,0-37.5-37.5H102a37.54227,37.54227,0,0,0-37.5,37.5v70.5h-35a14.51669,14.51669,0,0,0-14.5,14.5v15.5H13.5a13.51508,13.51508,0,0,0-13.5,13.5v62a13.51508,13.51508,0,0,0,13.5,13.5h18a13.51507,13.51507,0,0,0,13.5-13.5v-62a13.51507,13.51507,0,0,0-13.5-13.5H30v-15H64.5v283.5a37.553,37.553,0,0,0,31,36.92444v46.07556a22.39313,22.39313,0,0,0,1.29,7.5H7.5a7.5,7.5,0,0,0,0,15h497a7.5,7.5,0,0,0,0-15H415.21a22.39313,22.39313,0,0,0,1.29-7.5V443.42463a37.553,37.553,0,0,0,31-36.92444v-283.5H482v15Zm-450.5,74H15v-59H30Zm49.5-119h169v160H79.5Zm82,396.5a7.5082,7.5082,0,0,1-7.5,7.5H118a7.5082,7.5082,0,0,1-7.5-7.5v-45.5h51Zm13.71,7.5a22.39313,22.39313,0,0,0,1.29-7.5v-45.5h159v45.5a22.39313,22.39313,0,0,0,1.29,7.5Zm226.29-7.5a7.5082,7.5082,0,0,1-7.5,7.5H358a7.5082,7.5082,0,0,1-7.5-7.5v-45.5h51Zm31-83a22.52554,22.52554,0,0,1-22.5,22.5H102a22.52554,22.52554,0,0,1-22.5-22.5V320.47981a37.30378,37.30378,0,0,0,22.5,7.52038H410a37.30378,37.30378,0,0,0,22.5-7.52038Zm0-116a22.52554,22.52554,0,0,1-22.5,22.5H102a22.52554,22.52554,0,0,1-22.5-22.5v-22.5h353Zm0-37.5h-169v-160h169Zm0-175H79.5v-40.5a22.52554,22.52554,0,0,1,22.5-22.5H410a22.52554,22.52554,0,0,1,22.5,22.5Zm64.5,75v59H482v-59Zm-188,190H203a22.52554,22.52554,0,0,0-22.5,22.5v26a22.52554,22.52554,0,0,0,22.5,22.5H309a22.52554,22.52554,0,0,0,22.5-22.5v-26A22.52554,22.52554,0,0,0,309,343.00019Zm7.5,48.5a7.5082,7.5082,0,0,1-7.5,7.5H203a7.5082,7.5082,0,0,1-7.5-7.5v-26a7.5082,7.5082,0,0,1,7.5-7.5H309a7.5082,7.5082,0,0,1,7.5,7.5Zm-186.5-48.5a35.5,35.5,0,1,0,35.5,35.5A35.54,35.54,0,0,0,130,343.00019Zm0,56a20.5,20.5,0,1,1,20.5-20.5A20.52325,20.52325,0,0,1,130,399.00019Zm252-56a35.5,35.5,0,1,0,35.5,35.5A35.54,35.54,0,0,0,382,343.00019Zm0,56a20.5,20.5,0,1,1,20.5-20.5A20.52325,20.52325,0,0,1,382,399.00019Zm-265.52685-360a7.5,7.5,0,1,0,7.5,7.5A7.5,7.5,0,0,0,116.47315,39.00019Zm237.52685,0H158a7.5,7.5,0,0,0,0,15H354a7.5,7.5,0,0,0,0-15Z"/></svg>