<svg xmlns="http://www.w3.org/2000/svg" enable-background="new 0 0 50 50" viewBox="0 0 50 50"><polygon fill="#9BA2A6" points="44.662 41.42 14.823 24.08 10.072 24.229 39.911 41.57"/><polygon fill="#B0B8BC" points="39.911 41.57 10.072 24.229 5.33 29.56 35.169 46.901"/><polygon fill="#B0B8BC" points="39.857 22.327 10.018 4.987 14.823 24.08 44.662 41.42"/><polygon fill="#DDE4E7" points="39.847 18.94 10.231 1.717 4.272 31.66 34.111 49"/><polygon fill="#515AA7" points="39.847 18.94 38.631 25.319 8.964 8.08 10.18 1.702"/><polyline fill="none" points="39.844 18.939 16.449 5.341 16.052 5.117 15.491 4.791 12.487 3.039 12.09 2.815 10.185 1.705"/><path fill="#CFD8DD" d="M45.72778,42.29307l-5.81413,0.18678L34.11104,49l5.73588-30.05977L45.72778,42.29307z
					 M44.66165,41.42007l-4.80512-19.09273L35.16874,46.9008l4.74234-5.33092L44.66165,41.42007"/><path fill="#475E68" d="M15.17718,4.59662l-0.34433-0.20023c0.39442-0.55728,0.64487-1.2396,0.64487-1.83448
						c0-0.38823-0.10646-0.68873-0.29427-0.87032c-0.0501-0.05625-0.10642-0.09996-0.16905-0.13756l0.35063,0.20023
						C16.19107,2.25452,15.75945,3.7834,15.17718,4.59662z"/><path fill="#475E68" d="M15.61156,1.32994c-0.34914-0.20145-0.83595-0.17215-1.36702,0.13278
						c-1.0572,0.61466-1.91773,2.10474-1.91773,3.31917L11.9826,4.58044c-0.00492-1.21468,0.85561-2.70451,1.91284-3.31918
						c0.53597-0.30493,1.01785-0.33446,1.36699-0.13278L15.61156,1.32994z"/><path fill="#35484F" d="M15.42136,4.73449l-0.24417-0.13787c0.83107-1.16069,0.86145-2.74325,0.00627-2.90503
						c-0.26294-0.08132-0.5885-0.02476-0.9391,0.17547c-0.51338,0.3005-0.97039,0.84525-1.2584,1.45236
						c-0.19408,0.4133-0.30677,0.85167-0.30677,1.25855L12.3286,4.78432c0-0.51326,0.15025-1.07666,0.41322-1.60246
						c0.34433-0.72022,0.889-1.36493,1.50253-1.71556C16.06626,0.40983,16.88157,2.64269,15.42136,4.73449z"/><g><path fill="#475E68" d="M16.85295,5.58489l-0.34433-0.20023c0.39442-0.55728,0.64487-1.2396,0.64487-1.83448
						c0-0.40627-0.11637-0.79959-0.46332-1.00788c0.17032,0.09803,0.36489,0.158,0.55721,0.38181
						c0.00627,0.00611,0.01254,0.01253,0.01254,0.01895c0.05515,0.06871,0.10468,0.1253,0.17528,0.3381
						C17.64203,4.0379,17.30927,4.94759,16.85295,5.58489z"/><path fill="#475E68" d="M17.28733,2.31821c-1.27135-0.73354-3.28475,1.57548-3.28475,3.45195l-0.34422-0.20145
						c-0.00492-1.21468,0.8556-2.70451,1.91284-3.31918C16.5931,1.66815,17.09966,2.2588,17.28733,2.31821z"/><path fill="#35484F" d="M17.09713,5.72276l-0.24417-0.13787c0.45638-0.63739,0.78905-1.54707,0.58224-2.30372
						c-0.23723-0.71507-0.88065-0.78816-1.51507-0.42583c-0.51338,0.3005-0.97039,0.84525-1.2584,1.45236
						c-0.19408,0.4133-0.30677,0.85167-0.30677,1.25855l-0.3506,0.20634c0-0.51326,0.15025-1.07666,0.41322-1.60246
						c0.34433-0.72022,0.889-1.36493,1.50253-1.71556C17.74203,1.3981,18.55734,3.63097,17.09713,5.72276z"/></g><g><path fill="#475E68" d="M19.17359,4.73899c0.00627,0.601-0.25044,1.28331-0.64487,1.83417l-0.34433-0.20023
						c0.39442-0.55728,0.64487-1.2396,0.64487-1.83448c0-0.40627-0.11637-0.79958-0.46332-1.00788
						c0.17032,0.09803,0.36489,0.158,0.55721,0.38181c0.00627,0.00611,0.01253,0.01253,0.01253,0.01895
						c0.1283,0.15983,0.20582,0.38459,0.21911,0.55698C19.16732,4.56964,19.17359,4.65126,19.17359,4.73899z"/><path fill="#475E68" d="M18.9631,3.30648c-1.27135-0.73354-3.28475,1.57548-3.28475,3.45195l-0.34422-0.20145
						c-0.00492-1.21468,0.85561-2.70451,1.91284-3.31917C18.27091,2.65526,18.77581,3.24719,18.9631,3.30648z"/><path fill="#35484F" d="M19.52418,4.53846c0,0.70738-0.288,1.50891-0.75129,2.17258l-0.24417-0.13787
						c0.39442-0.55086,0.65113-1.23318,0.64487-1.83417c0-0.08773-0.00627-0.16936-0.0188-0.25067
						c-0.10355-1.34362-1.90564-1.11412-2.81729,0.80765c-0.19408,0.4133-0.30677,0.85167-0.30677,1.25855l-0.35059,0.20634
						c0-0.51326,0.15025-1.07666,0.41322-1.60246c0.34433-0.72022,0.889-1.36493,1.50253-1.71556
						C18.65394,2.82931,19.51791,3.32393,19.52418,4.53846z"/></g><g><path fill="#475E68" d="M24.35602,9.94251l-0.34433-0.20023c0.56696-0.80106,1.0259-2.33544,0.18154-2.84236
						c0.14198,0.10468,0.53782,0.21908,0.68243,0.58235C25.2053,8.13852,24.86485,9.23187,24.35602,9.94251z"/><path fill="#475E68" d="M24.7904,6.67583c-0.34914-0.20145-0.83595-0.17215-1.36702,0.13278
						c-1.0572,0.61466-1.91773,2.10474-1.91773,3.31917l-0.34422-0.20145c-0.00492-1.21468,0.8556-2.70451,1.91284-3.31918
						C24.09616,6.02577,24.60273,6.61642,24.7904,6.67583z"/><path fill="#35484F" d="M24.60019,10.08038l-0.24417-0.13787c1.24238-1.73514,0.57122-3.58855-0.93283-2.72956
						c-0.51338,0.3005-0.97039,0.84525-1.2584,1.45236c-0.19408,0.4133-0.30676,0.85167-0.30676,1.25855l-0.3506,0.20634
						c0-0.51326,0.15025-1.07666,0.41323-1.60246c0.34433-0.72022,0.889-1.36493,1.50253-1.71557
						C25.24509,5.75572,26.0604,7.98858,24.60019,10.08038z"/></g><g><path fill="#475E68" d="M26.03178,10.93079l-0.34433-0.20023c0.57914-0.81828,1.01913-2.3395,0.18155-2.84236
						c0.29623,0.17049,0.34021,0.13822,0.56974,0.40077C26.95813,8.93601,26.53826,10.22342,26.03178,10.93079z"/><path fill="#475E68" d="M26.46616,7.6641c-1.27135-0.73354-3.28475,1.57548-3.28475,3.45195l-0.34422-0.20145
						c-0.00777-1.91723,2.04887-4.16304,3.27983-3.45195L26.46616,7.6641z"/><path fill="#35484F" d="M26.27596,11.06865l-0.24417-0.13787c1.95272-2.72723-0.71801-4.38273-2.19123-1.2772
						c-0.19408,0.4133-0.30677,0.85167-0.30677,1.25855l-0.3506,0.20634c0-0.51326,0.15025-1.07666,0.41323-1.60246
						c0.34433-0.72022,0.889-1.36493,1.50253-1.71556C26.92086,6.74399,27.73617,8.97686,26.27596,11.06865z"/></g><g><path fill="#475E68" d="M27.70755,11.91906l-0.34433-0.20023c0.39442-0.55728,0.64487-1.2396,0.64487-1.83448
						c0-0.40627-0.11637-0.79959-0.46332-1.00788c0.24818,0.16148,0.37159,0.1658,0.55721,0.38181
						c0.00627,0.00611,0.01253,0.01253,0.01253,0.01895C28.64743,9.94114,28.21638,11.20842,27.70755,11.91906z"/><path fill="#475E68" d="M28.14193,8.65238c-1.27135-0.73354-3.28475,1.57548-3.28475,3.45195l-0.34422-0.20145
						c-0.00777-1.91723,2.04887-4.16304,3.27983-3.45195L28.14193,8.65238z"/><path fill="#35484F" d="M27.95173,12.05693l-0.24417-0.13787c0.50345-0.70313,0.93705-1.98144,0.40696-2.64182
						c0-0.00642-0.00627-0.01284-0.01253-0.01895c-0.72433-0.84297-2.05298,0.2607-2.58565,1.38358
						c-0.19408,0.4133-0.30676,0.85167-0.30676,1.25855l-0.3506,0.20634c0-0.51326,0.15025-1.07666,0.41322-1.60246
						c0.34433-0.72022,0.889-1.36493,1.50253-1.71556C28.59663,7.73227,29.41194,9.96513,27.95173,12.05693z"/></g><g><path fill="#475E68" d="M34.17971,13.45423c0.00626,0.601-0.25044,1.28331-0.64487,1.83417l-0.34433-0.20023
						c0.39442-0.55728,0.64487-1.2396,0.64487-1.83448c0-0.38823-0.10646-0.68873-0.29427-0.87032
						c-0.0501-0.05625-0.10642-0.09996-0.16905-0.13756l0.35064,0.20023c0.0313,0.01895,0.06259,0.0376,0.08762,0.06267
						c0.04383,0.0376,0.08139,0.0752,0.11895,0.11892c0.00627,0.00611,0.01253,0.01253,0.01253,0.01895
						c0.02503,0.03118,0.0501,0.05625,0.06886,0.09385c0.0188,0.02507,0.0313,0.05625,0.04383,0.08774
						c0.02503,0.04983,0.04383,0.09996,0.06259,0.15652C34.15799,13.13433,34.17971,13.29983,34.17971,13.45423z"/><path fill="#475E68" d="M33.96923,12.02172c-0.34914-0.20145-0.83595-0.17215-1.36702,0.13278
						c-1.0572,0.61466-1.91773,2.10474-1.91773,3.31917l-0.34422-0.20145c-0.00492-1.21468,0.8556-2.70451,1.91283-3.31917
						c0.53597-0.30493,1.01786-0.33446,1.36699-0.13278L33.96923,12.02172z"/><path fill="#35484F" d="M33.77902,15.42627l-0.24417-0.13787c0.39442-0.55086,0.65113-1.23318,0.64487-1.83417
						c0-0.1544-0.02173-0.3199-0.06263-0.46955c-0.01876-0.05655-0.03756-0.10669-0.06259-0.15652
						c-0.01254-0.03149-0.02503-0.06267-0.04383-0.08774c-0.01876-0.0376-0.04383-0.06267-0.06886-0.09385
						c0-0.00642-0.00626-0.01284-0.01253-0.01895c-0.03756-0.04371-0.07513-0.08132-0.11895-0.11892
						c-0.08139-0.06267-0.16901-0.10638-0.2692-0.12534c-0.26294-0.08132-0.5885-0.02476-0.9391,0.17547
						c-0.51338,0.3005-0.97039,0.84525-1.2584,1.45236c-0.19408,0.4133-0.30677,0.85167-0.30677,1.25855l-0.3506,0.20634
						c0-0.51326,0.15025-1.07666,0.41323-1.60246c0.34433-0.72022,0.889-1.36493,1.50253-1.71556
						C34.42392,11.10161,35.23923,13.33448,33.77902,15.42627z"/><g><path fill="#475E68" d="M35.21062,16.27668l-0.34433-0.20023c0.56696-0.80106,1.0259-2.33544,0.18155-2.84236
						c0.29623,0.17049,0.34021,0.13822,0.56974,0.40077C36.13696,14.28191,35.71709,15.56932,35.21062,16.27668z"/><path fill="#475E68" d="M35.645,13.01c-1.27135-0.73354-3.28475,1.57548-3.28475,3.45195l-0.34422-0.20145
						c-0.00492-1.21468,0.8556-2.70451,1.91283-3.31917C34.95281,12.35877,35.4577,12.95071,35.645,13.01z"/><path fill="#35484F" d="M35.45479,16.41455l-0.24417-0.13787c1.14909-1.60486,0.662-3.64039-0.93283-2.72956
						c-0.51338,0.3005-0.97039,0.84525-1.2584,1.45236c-0.19408,0.4133-0.30677,0.85167-0.30677,1.25855l-0.3506,0.20634
						c0-0.51326,0.15025-1.07666,0.41323-1.60246c0.34433-0.72022,0.889-1.36493,1.50253-1.71556
						C36.09969,12.08988,36.915,14.32275,35.45479,16.41455z"/></g><g><path fill="#475E68" d="M37.53125,15.43078c0.00627,0.601-0.25044,1.28331-0.64487,1.83417l-0.34433-0.20023
						c0.39442-0.55728,0.64486-1.2396,0.64486-1.83448c0-0.40627-0.11637-0.79959-0.46332-1.00788
						c0.35698,0.20546,0.74387,0.37421,0.78885,0.95775C37.52498,15.26142,37.53125,15.34304,37.53125,15.43078z"/><path fill="#475E68" d="M37.32076,13.99827c-1.27135-0.73354-3.28475,1.57548-3.28475,3.45195l-0.34422-0.20145
						c-0.00777-1.91723,2.04887-4.16304,3.27983-3.45195L37.32076,13.99827z"/><path fill="#35484F" d="M37.88184,15.23024c0,0.70738-0.288,1.50891-0.75129,2.17258l-0.24417-0.13787
						c0.39442-0.55086,0.65113-1.23318,0.64487-1.83417c0-0.08774-0.00627-0.16936-0.0188-0.25067
						c-0.10307-1.3373-1.90287-1.11996-2.8173,0.80765c-0.19408,0.4133-0.30677,0.85167-0.30677,1.25855l-0.35059,0.20634
						c0-0.51326,0.15025-1.07666,0.41322-1.60246c0.34433-0.72022,0.889-1.36493,1.50253-1.71556
						C37.0116,13.5211,37.87558,14.01571,37.88184,15.23024z"/></g></g><g><polygon fill="#EE534F" points="20.808 35.948 23.212 37.333 22.672 40.338 20.258 38.953"/><polygon fill="#EE534F" points="21.664 31.212 24.067 32.597 23.528 35.602 21.124 34.217"/><polygon fill="#7DB343" points="12.212 25.752 14.616 27.138 14.066 30.143 11.662 28.757"/><polygon fill="#EE534F" points="23.385 21.74 25.789 23.135 25.249 26.14 22.835 24.755"/><polygon fill="#CFD8DD" points="27.255 29.205 29.659 30.601 29.109 33.606 26.705 32.21"/><polygon fill="#CFD8DD" points="17.804 23.746 20.207 25.131 19.657 28.146 17.253 26.761"/><polygon fill="#CFD8DD" points="26.39 33.941 28.804 35.327 28.254 38.331 25.85 36.946"/><polygon fill="#CFD8DD" points="28.111 24.469 30.515 25.865 29.975 28.869 27.561 27.484"/><polygon fill="#CFD8DD" points="31.126 36.671 33.53 38.056 32.98 41.061 30.576 39.676"/><polygon fill="#CFD8DD" points="7.486 23.023 9.89 24.408 9.34 27.413 6.936 26.028"/><polygon fill="#EE534F" points="22.519 26.476 24.933 27.871 24.383 30.876 21.979 29.48"/><polygon fill="#CFD8DD" points="16.938 28.482 19.342 29.867 18.802 32.872 16.398 31.487"/><polygon fill="#CFD8DD" points="31.981 31.935 34.385 33.331 33.845 36.335 31.431 34.94"/><polygon fill="#7DB343" points="11.356 30.489 13.76 31.874 13.21 34.879 10.806 33.493"/><polygon fill="#CFD8DD" points="35.251 28.594 34.701 31.599 32.297 30.214 32.837 27.199"/><polygon fill="#CFD8DD" points="6.62 27.759 9.024 29.144 8.484 32.149 6.08 30.764"/><polygon fill="#CFD8DD" points="16.082 33.218 18.486 34.604 17.936 37.608 15.532 36.223"/><polygon fill="#7DB343" points="13.067 21.016 15.471 22.402 14.931 25.417 12.528 24.021"/><polygon fill="#CFD8DD" points="8.341 18.287 10.745 19.672 10.195 22.687 7.791 21.291"/></g></svg>