<svg xmlns="http://www.w3.org/2000/svg" viewBox="0 0 32 32"><g data-name="83 class"><path fill="#cff1a2" d="M29,2H3A1,1,0,0,0,2,3V24a1,1,0,0,0,1,1H16.81a1,1,0,0,0,.87-.5A5,5,0,0,1,22,22a4.92,4.92,0,0,1,3.53,1.47,4.74,4.74,0,0,1,.79,1,1,1,0,0,0,.87.51H29a1,1,0,0,0,1-1V3A1,1,0,0,0,29,2Z"/><path fill="#fff" d="M26,5H6A1,1,0,0,0,5,6V21a1,1,0,0,0,1,1H22a1,1,0,0,0,0-2,3,3,0,1,1,3-3,1,1,0,0,0,2,0V6A1,1,0,0,0,26,5Z"/><path fill="#cff1a2" d="M28.06,23.51A6.66,6.66,0,0,0,27,22.06,6.89,6.89,0,0,0,22,20,7,7,0,0,0,16,23.49,6.9,6.9,0,0,0,15,27v2a1,1,0,0,0,1,1H28a1,1,0,0,0,1-1V27A6.86,6.86,0,0,0,28.06,23.51Z"/><path d="M27.24 22.37A6.75 6.75 0 0 0 25 22 7 7 0 0 0 19 25.49 6.9 6.9 0 0 0 18 29v1H16a1 1 0 0 1-1-1V27A6.9 6.9 0 0 1 16 23.49 7 7 0 0 1 22 20 6.89 6.89 0 0 1 27 22.06C27.05 22.16 27.15 22.26 27.24 22.37zM17 11H9A1 1 0 0 1 9 9h8a1 1 0 0 1 0 2zM17 14H9a1 1 0 0 1 0-2h8a1 1 0 0 1 0 2zM16 17H9a1 1 0 0 1 0-2h7a1 1 0 0 1 0 2zM15 20H9a1 1 0 0 1 0-2h6a1 1 0 0 1 0 2z" opacity=".1"/><circle cx="23" cy="10" r="1" opacity=".1"/><circle cx="20" cy="10" r="1" opacity=".1"/><circle cx="22" cy="17" r="5" fill="#fff"/><path d="M22,22a5,5,0,0,1,0-10,4.94,4.94,0,0,1,3,1,5,5,0,0,0-3,9Z" opacity=".1"/><path fill="#4d7d5e" d="M29,2H3A1,1,0,0,0,2,3V24a1,1,0,0,0,1,1H15.29A7.27,7.27,0,0,0,15,27v2a1,1,0,0,0,1,1H28a1,1,0,0,0,1-1V27a7.27,7.27,0,0,0-.29-2H29a1,1,0,0,0,1-1V3A1,1,0,0,0,29,2ZM22,20a3,3,0,1,1,3-3A3,3,0,0,1,22,20Zm3-7a4.92,4.92,0,0,0-3-1,5,5,0,0,0-5,5,4.92,4.92,0,0,0,1,3H7V7H25Zm2,15H17V27a5,5,0,0,1,10,0Zm-1.78-7.21A5,5,0,0,0,27,17V6a1,1,0,0,0-1-1H6A1,1,0,0,0,5,6V21a1,1,0,0,0,1,1H17.11a8.16,8.16,0,0,0-.85,1H4V4H28V23h-.26A7.16,7.16,0,0,0,25.22,20.79ZM8,9A1,1,0,0,1,9,8h8a1,1,0,0,1,0,2H9A1,1,0,0,1,8,9Zm0,3a1,1,0,0,1,1-1h8a1,1,0,0,1,0,2H9A1,1,0,0,1,8,12Zm0,3a1,1,0,0,1,1-1h7a1,1,0,0,1,0,2H9A1,1,0,0,1,8,15Zm0,3a1,1,0,0,1,1-1h6a1,1,0,0,1,0,2H9A1,1,0,0,1,8,18ZM22,9a1,1,0,1,1,1,1A1,1,0,0,1,22,9ZM19,9a1,1,0,1,1,1,1A1,1,0,0,1,19,9Z"/></g></svg>