<svg xmlns="http://www.w3.org/2000/svg" width="32" height="32" viewBox="0 0 32 32"><g transform="translate(0 -1020.362)"><path fill="#25b39e" d="m 12.99151,1021.3682 0,0 c -0.13968,0 -0.26348,0.1244 -0.26348,0.2633 l 0,1.9064 c 0,0.3877 0.21692,0.7288 0.54285,0.9149 l 0,0.4496 c 0,0.03 0.0153,0.061 0.0153,0.095 0,0.061 -0.0153,0.1245 -0.0153,0.1859 l 0,0.8062 c 0,0.8996 0.43386,1.6746 1.10107,2.171 -0.062,0.449 -0.24814,0.7132 -0.5582,0.946 -0.37195,0.2788 -0.89948,0.4652 -1.45768,0.7131 -0.55821,0.2328 -1.14708,0.5271 -1.61216,1.0233 C 10.29416,1031.3535 10,1032.0664 10,1033.0903 l 0,0.2792 12,0 0,-0.2792 c 0,-0.9927 -0.29472,-1.69 -0.7598,-2.186 -0.44973,-0.4808 -1.02327,-0.7602 -1.58148,-0.9926 -0.55821,-0.2328 -1.06984,-0.4343 -1.44179,-0.7132 -0.31006,-0.2481 -0.51164,-0.5426 -0.5582,-1.0544 0.65077,-0.4963 1.06984,-1.2715 1.06984,-2.1557 l 0,-0.8063 c 0,-0.061 0,-0.1244 0,-0.1857 0,-0.03 0,-0.061 0,-0.095 l 0,-1.3645 c 0,-0.8996 -0.72912,-1.6434 -1.62805,-1.6434 l -1.05396,0 -0.0466,0 -2.09313,0 c -0.0931,0 -0.29472,-0.03 -0.44973,-0.095 -0.062,-0.03 -0.12435,-0.061 -0.15503,-0.095 -0.0153,-0.029 -0.0312,-0.047 -0.0312,-0.077 0,-0.1539 -0.12381,-0.2782 -0.27938,-0.2631 l 0,0 z"/><path fill="#f8b84e" d="M3.4944586 1041.3672l0 0c-.1163288 0-.2194324.1036-.2194324.2193l0 1.5877c0 .3229.1806561.607.4520983.762l0 .3744c0 .025.012742.051.012742.079 0 .051-.012742.1037-.012742.1548l0 .6715c0 .7492.3613289 1.3946.9169971 1.808-.051635.374-.2066568.594-.4648821.7879-.3097688.2322-.7491082.3874-1.2139903.5939-.4648905.1938-.9553153.4389-1.3426449.8522-.3745624.4253-.6195458 1.019-.6195458 1.8718l0 .2325 9.9938835 0 0-.2325c0-.8268-.24545-1.4075-.632779-1.8206-.3745465-.4004-.8522045-.6331-1.3170945-.8266-.4648906-.1939-.8909881-.3617-1.2007568-.594-.2582253-.2066-.4261059-.4519-.4648822-.8781.5419766-.4134.890988-1.059.890988-1.7954l0-.6715c0-.051 0-.1036 0-.1546 0-.025 0-.051 0-.079l0-1.1364c0-.7492-.6072283-1.3687-1.3558784-1.3687l-.8777628 0-.03881 0-1.743208 0c-.077536 0-.2454498-.025-.3745458-.079-.051635-.025-.1035616-.051-.1291126-.079-.012742-.024-.025984-.039-.025984-.064 0-.1282-.1031119-.2317-.2326743-.2192l0 0zM23.497518 1041.3672l0 0c-.116329 0-.219433.1036-.219433.2193l0 1.5877c0 .3229.180656.607.452099.762l0 .3744c0 .025.01274.051.01274.079 0 .051-.01274.1037-.01274.1548l0 .6715c0 .7492.361328 1.3946.916997 1.808-.05164.374-.206657.594-.464882.7879-.309769.2322-.749109.3874-1.213991.5939-.46489.1938-.955315.4389-1.342645.8522-.374562.4253-.619545 1.019-.619545 1.8718l0 .2325 9.993882 0 0-.2325c0-.8268-.24545-1.4075-.632779-1.8206-.374546-.4004-.852204-.6331-1.317093-.8266-.464891-.1939-.890989-.3617-1.200757-.594-.258226-.2066-.426106-.4519-.464883-.8781.541977-.4134.890988-1.059.890988-1.7954l0-.6715c0-.051 0-.1036 0-.1546 0-.025 0-.051 0-.079l0-1.1364c0-.7492-.607228-1.3687-1.355878-1.3687l-.877763 0-.03881 0-1.743208 0c-.07754 0-.24545-.025-.374545-.079-.05164-.025-.103562-.051-.129113-.079-.01274-.024-.02598-.039-.02598-.064 0-.1282-.103112-.2317-.232674-.2192l0 0z" transform="translate(-.002)"/><path fill="none" stroke="#576d7e" d="M5.5003837 1040.3622l0-3.5 20.0064493 0 0 3.5M15.5 1034.3622l0 3"/></g></svg>