<svg xmlns="http://www.w3.org/2000/svg" data-name="Layer 1" viewBox="0 0 64 64"><path fill="none" stroke="#078cd6" stroke-linecap="round" stroke-linejoin="round" stroke-width="2" d="M38.15 21.7C38.15 25.09 35.39 31 32 31s-6.15-5.92-6.15-9.32a6.15 6.15 0 0112.29 0zM19.34 48.3a12.66 12.66 0 0125.32 0M53.49 25.77c0 2.87-2.33 8-5.2 8s-5.2-5.17-5.2-8a5.2 5.2 0 0110.41 0zM41.81 39.9A10.72 10.72 0 0159 48.45M10.51 25.77c0 2.87 2.33 8 5.2 8s5.2-5.17 5.2-8a5.2 5.2 0 00-10.41 0zM22.19 39.9A10.72 10.72 0 005 48.45"/></svg>