<svg xmlns="http://www.w3.org/2000/svg" data-name="Layer 1" viewBox="0 0 32 32"><path fill="#3659d8" d="M25.05,30.18H7a1,1,0,0,1-1-1V9.68a1,1,0,0,1,1-1h5.58l.09-5.88a1,1,0,0,1,1-1H25.05a1,1,0,0,1,1,1V29.18A1,1,0,0,1,25.05,30.18ZM8,28.18h16.1V3.82H14.6L14.51,9.7a1,1,0,0,1-1,1H8Z"/><path fill="#3659d8" d="M13.51,10.68H7A1,1,0,0,1,6.23,9L12.9,2.12A1,1,0,0,1,14,1.9a1,1,0,0,1,.62.94L14.51,9.7A1,1,0,0,1,13.51,10.68Zm-4.19-2h3.21l.05-3.36Z"/><path fill="#db9b35" d="M21.38 24.66H12.14a1 1 0 1 1 0-2h9.24a1 1 0 0 1 0 2zM21.38 19.66H12.14a1 1 0 0 1 0-2h9.24a1 1 0 0 1 0 2zM21.38 14.66H12.14a1 1 0 0 1 0-2h9.24a1 1 0 0 1 0 2z"/></svg>