<svg xmlns="http://www.w3.org/2000/svg" viewBox="0 0 64 64"><rect width="40" height="41" x="12" y="5" fill="#bdfdff"/><polygon fill="#ff5023" points="48 5 48 16 45 14 42 16 42 5 42 3 48 3 48 5"/><polygon fill="#6d2c93" points="61 32 52 40.4 52 32 61 32"/><polygon fill="#8034ad" points="61 32 61 61 48.06 44.08 61 32"/><polygon fill="#6d2c93" points="12 32 12 40.4 3 32 12 32"/><polygon fill="#933ec5" points="15.94 44.08 3 61 3 32 15.94 44.08"/><polygon fill="#bb7fd9" points="48.06 44.08 61 61 3 61 15.94 44.08 18 46 23 46 46 46 48.06 44.08"/><path d="M30,30h4v6h2V23a1,1,0,0,0-1-1H29a1,1,0,0,0-1,1V36h2Zm0-6h4v4H30Z"/><rect width="24" height="2" x="20" y="38"/><polygon points="40 25 42 25 42 23 44 23 44 21 42 21 42 19 40 19 40 21 38 21 38 23 40 23 40 25"/><path d="M61,31H53V5a1,1,0,0,0-1-1H49V3a1,1,0,0,0-1-1H42a1,1,0,0,0-1,1V4H12a1,1,0,0,0-1,1V31H3a1,1,0,0,0-1,1V61a1,1,0,0,0,1,1H61a1,1,0,0,0,1-1V32A1,1,0,0,0,61,31Zm-8,2h5.46L53,38.1ZM43,4h4V14.13l-1.45-.96a.975.975,0,0,0-1.1,0L43,14.13ZM13,6H41V16a.984.984,0,0,0,.53.88.963.963,0,0,0,1.02-.05L45,15.2l2.45,1.63A1,1,0,0,0,49,16V6h2V39.96L45.61,45H18.39L13,39.96ZM11,33v5.1L5.54,33ZM4,34.3l10.6,9.89L4,58.05ZM5.02,60,16.06,45.56l1.26,1.17A1,1,0,0,0,18,47H46a1,1,0,0,0,.68-.27l1.26-1.17L58.98,60ZM60,58.05,49.4,44.19,60,34.3Z"/><rect width="4" height="2" x="15" y="8"/><rect width="6" height="2" x="21" y="8"/><rect width="8" height="2" x="15" y="12"/></svg>