<svg xmlns="http://www.w3.org/2000/svg" viewBox="0 0 32 32"><circle cx="16" cy="16" r="13.5" fill="#607d95"/><path fill="#4b6c85" d="M6.5 16c0-6.8 5-12.4 11.5-13.3-.7-.1-1.3-.2-2-.2-7.5 0-13.5 6-13.5 13.5s6 13.5 13.5 13.5c.7 0 1.3-.1 2-.2-6.5-.9-11.5-6.5-11.5-13.3z"/><path fill="#fff" d="M16 26.5c-.8 0-1.5-.7-1.5-1.5V12c0-.8.7-1.5 1.5-1.5s1.5.7 1.5 1.5v13c0 .8-.7 1.5-1.5 1.5zM16 8.5c-.8 0-1.5-.7-1.5-1.5s.7-1.5 1.5-1.5 1.5.7 1.5 1.5-.7 1.5-1.5 1.5z"/><path fill="#004463" d="M16 30C8.3 30 2 23.7 2 16S8.3 2 16 2s14 6.3 14 14-6.3 14-14 14zm0-27C8.8 3 3 8.8 3 16s5.8 13 13 13 13-5.8 13-13S23.2 3 16 3z"/><path fill="#004463" d="M16 27c-1.1 0-2-.9-2-2V12c0-1.1.9-2 2-2s2 .9 2 2v13c0 1.1-.9 2-2 2zm0-16c-.6 0-1 .4-1 1v13c0 .6.4 1 1 1s1-.4 1-1V12c0-.6-.4-1-1-1zM16 9c-1.1 0-2-.9-2-2s.9-2 2-2 2 .9 2 2-.9 2-2 2zm0-3c-.6 0-1 .4-1 1s.4 1 1 1 1-.4 1-1-.4-1-1-1z"/></svg>