<svg xmlns="http://www.w3.org/2000/svg" width="202" height="202" fill-rule="evenodd" clip-rule="evenodd" image-rendering="optimizeQuality" shape-rendering="geometricPrecision" text-rendering="geometricPrecision" viewBox="0 0 3894 3894"><circle cx="1947" cy="1947" r="1947" fill="#ffe356"/><polygon fill="#fff" points="334 1336 1388 1336 1388 2002 334 2002"/><path fill="#ff7069" d="M861 1497c95,0 172,77 172,172 0,95 -77,172 -172,172 -95,0 -172,-77 -172,-172 0,-95 77,-172 172,-172z"/><polygon fill="#fff" points="809 1564 913 1669 809 1773"/><polygon fill="#c6cbd6" points="334 1336 1388 1336 1388 1399 334 1399"/><polygon fill="#c6cbd6" points="334 1938 1388 1938 1388 2002 334 2002"/><path fill="#6c7678" d="M2471 856l-1013 0c-16,0 -29,13 -29,29l0 1946c0,16 13,29 29,29l1013 0c16,0 29,-13 29,-29l0 -1946c0,-16 -13,-29 -29,-29z"/><path fill="#ecf0f1" d="M2426 1127l-924 0c-12,0 -22,10 -22,22l0 1418c0,12 10,22 22,22l924 0c12,0 22,-10 22,-22l0 -1418c0,-12 -10,-22 -22,-22z"/><path fill="#c6cbd6" d="M2207 980l-486 0c-11,0 -20,9 -20,20l0 0c0,11 9,20 20,20l486 0c11,0 20,-9 20,-20l0 0c0,-11 -9,-20 -20,-20z"/><circle cx="1968" cy="2730" r="67" fill="#c6cbd6"/><circle cx="1565" cy="1002" r="23" fill="#c6cbd6"/><path fill="#fff" fill-rule="nonzero" d="M1121 682l0 41 -204 0 0 -41 204 0zm-224 105l41 0 0 204 -41 0 0 -204zm0 301l41 0 0 104 -41 0 0 -104zm41 1058l0 150 -41 0 0 -150 41 0zm-41 272l41 0 0 204 -41 0 0 -204zm0 326l41 0 0 204 -41 0 0 -204zm0 326l41 0 0 100 63 0 0 41 -83 0 -20 0 0 -20 0 -121zm226 141l0 -41 204 0 0 41 -204 0zm326 0l0 -41 204 0 0 41 -204 0zm326 0l0 -41 204 0 0 41 -204 0zm326 0l0 -41 204 0 0 41 -204 0zm326 0l0 -41 204 0 0 41 -204 0zm326 0l0 -41 204 0 0 41 -204 0zm243 -124l-41 0 0 -266 41 0 0 62 0 204zm0 -1305l-41 0 0 -204 41 0 0 204zm0 -326l-41 0 0 -204 41 0 0 204zm0 -326l-41 0 0 -204 41 0 0 204zm0 -326l-41 0 0 -81 -82 0 0 -41 102 0 20 0 0 20 0 102zm-245 -122l0 41 -204 0 0 -41 204 0zm-326 0l0 41 -204 0 0 -41 204 0zm-326 0l0 41 -204 0 0 -41 204 0zm-326 0l0 41 -204 0 0 -41 204 0zm-326 0l0 41 -204 0 0 -41 204 0z"/><g><polygon fill="#75bd80" points="2914 2231 2539 1957 2543 2601"/><polygon fill="#75bd80" points="3679 2601 3682 1946 3328 2218"/><polygon fill="#83cf8f" points="3328 2218 2914 2231 2543 2601 3110 2601 3679 2601"/><path fill="#97dba1" d="M3189 2402l493 -456 -1144 13 502 447c43,38 104,36 148,-4z"/></g><g><polygon fill="#83cf8f" points="2300 1626 1617 1626 1617 2038 1702 2038 1593 2290 1799 2038 2300 2038"/><path fill="#fff" d="M1814 1776c25,0 46,20 46,46 0,25 -20,46 -46,46 -25,0 -46,-20 -46,-46 0,-25 20,-46 46,-46zm303 0c25,0 46,20 46,46 0,25 -20,46 -46,46 -25,0 -46,-20 -46,-46 0,-25 20,-46 46,-46zm-151 0c25,0 46,20 46,46 0,25 -20,46 -46,46 -25,0 -46,-20 -46,-46 0,-25 20,-46 46,-46z"/></g></svg>