<svg xmlns="http://www.w3.org/2000/svg" viewBox="0 0 64 64"><g data-name="man-avatar-reading-student-education-book store"><path fill="#f7d880" d="M44,61H13V41a6,6,0,0,1,6-6H43Z"/><path fill="#f7d880" d="M21,61H52V41a6,6,0,0,0-6-6H22Z"/><path fill="#ffcbbe" d="M28,27h8a0,0,0,0,1,0,0v9a4,4,0,0,1-4,4h0a4,4,0,0,1-4-4V27A0,0,0,0,1,28,27Z"/><path fill="#ffddce" d="M23,12H41a0,0,0,0,1,0,0V22a9,9,0,0,1-9,9h0a9,9,0,0,1-9-9V12A0,0,0,0,1,23,12Z"/><path fill="#ffcbbe" d="M21,15h2a0,0,0,0,1,0,0v6a0,0,0,0,1,0,0H21a2,2,0,0,1-2-2V17A2,2,0,0,1,21,15Z"/><path fill="#ffcbbe" d="M43,15h2a0,0,0,0,1,0,0v6a0,0,0,0,1,0,0H43a2,2,0,0,1-2-2V17A2,2,0,0,1,43,15Z" transform="rotate(-180 43 18)"/><path fill="#3e3d42" d="M43,4v6a2.006,2.006,0,0,1-2,2H23a3,3,0,0,1-3-3V3H36a1.968,1.968,0,0,1,1.72,1Z"/><path fill="#6bc19a" d="M10,61H32V48a6,6,0,0,0-6-6H10Z"/><path fill="#6fc991" d="M54,61H32V48a6,6,0,0,1,6-6H54Z"/><path fill="#ffcbbe" d="M8 61h3a4 4 0 0 0 4-4h0a4 4 0 0 0-4-4H6v6A2 2 0 0 0 8 61zM8 49h2a0 0 0 0 1 0 0v4a0 0 0 0 1 0 0H6a0 0 0 0 1 0 0V51A2 2 0 0 1 8 49zM56 61H53a4 4 0 0 1-4-4h0a4 4 0 0 1 4-4h5v6A2 2 0 0 1 56 61z"/><path fill="#ffcbbe" d="M54,49h4a0,0,0,0,1,0,0v4a0,0,0,0,1,0,0H56a2,2,0,0,1-2-2V49A0,0,0,0,1,54,49Z" transform="rotate(-180 56 51)"/><path d="M56,48H55V42a1,1,0,0,0-1-1H52a7.008,7.008,0,0,0-7-7H37V30.65A10.023,10.023,0,0,0,42,22h1a3.009,3.009,0,0,0,3-3V17a3.009,3.009,0,0,0-3-3H42V12.82A3.01,3.01,0,0,0,44,10V4a1,1,0,0,0-1-1H38.22A2.986,2.986,0,0,0,36,2H20a1,1,0,0,0-1,1V9a4,4,0,0,0,3,3.86V14H21a3.009,3.009,0,0,0-3,3v2a3.009,3.009,0,0,0,3,3h1a10.023,10.023,0,0,0,5,8.65V34H19a7.008,7.008,0,0,0-7,7H10a1,1,0,0,0-1,1v6H8a3.009,3.009,0,0,0-3,3v8a3.009,3.009,0,0,0,3,3H56a3.009,3.009,0,0,0,3-3V51A3.009,3.009,0,0,0,56,48ZM22,20H21a1,1,0,0,1-1-1V17a1,1,0,0,1,1-1h1Zm21-4a1,1,0,0,1,1,1v2a1,1,0,0,1-1,1H42V16ZM21,9V4H36a1,1,0,0,1,1,1V7h2V5h3v5a1,1,0,0,1-1,1H23A2.006,2.006,0,0,1,21,9Zm3,13V13H40v9a8,8,0,0,1-16,0Zm11,9.54V36a3,3,0,0,1-6,0V31.54a10.013,10.013,0,0,0,6,0ZM7,51a1,1,0,0,1,1-1H9v2H7Zm4,9H8a1,1,0,0,1-1-1V54h4a3,3,0,0,1,0,6Zm20,0H14.97A4.924,4.924,0,0,0,16,57a5,5,0,0,0-5-5V43H26a5,5,0,0,1,5,5ZM26,41H14a5,5,0,0,1,5-5h8a5,5,0,0,0,10,0h8a5,5,0,0,1,5,5H38a6.986,6.986,0,0,0-6,3.41A6.986,6.986,0,0,0,26,41ZM49.03,60H33V48a5,5,0,0,1,5-5H53v9a5,5,0,0,0-5,5A4.924,4.924,0,0,0,49.03,60ZM57,59a1,1,0,0,1-1,1H53a3,3,0,0,1,0-6h4Zm0-7H55V50h1a1,1,0,0,1,1,1Z"/><rect width="2" height="3" x="28" y="17" rx="1"/><rect width="2" height="3" x="34" y="17" rx="1"/></g></svg>